G04 #@! TF.GenerationSoftware,KiCad,Pcbnew,(5.1.9)-1*
G04 #@! TF.CreationDate,2021-04-13T22:09:09-06:00*
G04 #@! TF.ProjectId,64,36342e6b-6963-4616-945f-706362585858,rev?*
G04 #@! TF.SameCoordinates,Original*
G04 #@! TF.FileFunction,Soldermask,Bot*
G04 #@! TF.FilePolarity,Negative*
%FSLAX46Y46*%
G04 Gerber Fmt 4.6, Leading zero omitted, Abs format (unit mm)*
G04 Created by KiCad (PCBNEW (5.1.9)-1) date 2021-04-13 22:09:09*
%MOMM*%
%LPD*%
G01*
G04 APERTURE LIST*
%ADD10C,1.750000*%
%ADD11C,3.987800*%
%ADD12R,2.550000X2.500000*%
%ADD13C,3.048000*%
%ADD14C,0.100000*%
%ADD15O,0.550000X1.500000*%
%ADD16C,2.032000*%
%ADD17O,3.900000X2.799999*%
%ADD18R,0.500000X0.900000*%
%ADD19R,0.250000X0.550000*%
%ADD20R,0.300000X0.550000*%
%ADD21C,0.800000*%
%ADD22R,0.800000X0.750000*%
%ADD23R,2.030000X1.140000*%
%ADD24O,1.100000X2.200000*%
%ADD25O,1.300000X1.900000*%
%ADD26C,0.650000*%
%ADD27C,4.000000*%
%ADD28R,0.900000X0.500000*%
%ADD29R,0.750000X0.800000*%
%ADD30R,1.200000X1.800000*%
%ADD31R,0.600000X1.550000*%
%ADD32R,1.800000X1.100000*%
G04 APERTURE END LIST*
D10*
G04 #@! TO.C,MX_CAPS1*
X166092500Y-214350000D03*
X155932500Y-214350000D03*
D11*
X161012500Y-214350000D03*
D12*
X153892500Y-211810000D03*
X166862500Y-209270000D03*
G04 #@! TD*
G04 #@! TO.C,MX_UP1*
X469281250Y-228320000D03*
X456311250Y-230860000D03*
D10*
X468511250Y-233400000D03*
X458351250Y-233400000D03*
D11*
X463431250Y-233400000D03*
G04 #@! TD*
D12*
G04 #@! TO.C,MX_.1*
X345456250Y-228320000D03*
X332486250Y-230860000D03*
D10*
X344686250Y-233400000D03*
X334526250Y-233400000D03*
D11*
X339606250Y-233400000D03*
G04 #@! TD*
D12*
G04 #@! TO.C,MX_\u002C1*
X326406250Y-228320000D03*
X313436250Y-230860000D03*
D10*
X325636250Y-233400000D03*
X315476250Y-233400000D03*
D11*
X320556250Y-233400000D03*
G04 #@! TD*
D12*
G04 #@! TO.C,MX_#0*
X364506250Y-171170000D03*
X351536250Y-173710000D03*
D10*
X363736250Y-176250000D03*
X353576250Y-176250000D03*
D11*
X358656250Y-176250000D03*
G04 #@! TD*
D12*
G04 #@! TO.C,MX_#1*
X193056250Y-171170000D03*
X180086250Y-173710000D03*
D10*
X192286250Y-176250000D03*
X182126250Y-176250000D03*
D11*
X187206250Y-176250000D03*
G04 #@! TD*
D12*
G04 #@! TO.C,MX_#2*
X212106250Y-171170000D03*
X199136250Y-173710000D03*
D10*
X211336250Y-176250000D03*
X201176250Y-176250000D03*
D11*
X206256250Y-176250000D03*
G04 #@! TD*
D12*
G04 #@! TO.C,MX_#3*
X231156250Y-171170000D03*
X218186250Y-173710000D03*
D10*
X230386250Y-176250000D03*
X220226250Y-176250000D03*
D11*
X225306250Y-176250000D03*
G04 #@! TD*
D12*
G04 #@! TO.C,MX_#4*
X250206250Y-171170000D03*
X237236250Y-173710000D03*
D10*
X249436250Y-176250000D03*
X239276250Y-176250000D03*
D11*
X244356250Y-176250000D03*
G04 #@! TD*
D12*
G04 #@! TO.C,MX_#5*
X269256250Y-171170000D03*
X256286250Y-173710000D03*
D10*
X268486250Y-176250000D03*
X258326250Y-176250000D03*
D11*
X263406250Y-176250000D03*
G04 #@! TD*
D12*
G04 #@! TO.C,MX_#6*
X288306250Y-171170000D03*
X275336250Y-173710000D03*
D10*
X287536250Y-176250000D03*
X277376250Y-176250000D03*
D11*
X282456250Y-176250000D03*
G04 #@! TD*
D12*
G04 #@! TO.C,MX_#7*
X307356250Y-171170000D03*
X294386250Y-173710000D03*
D10*
X306586250Y-176250000D03*
X296426250Y-176250000D03*
D11*
X301506250Y-176250000D03*
G04 #@! TD*
D12*
G04 #@! TO.C,MX_#8*
X326406250Y-171170000D03*
X313436250Y-173710000D03*
D10*
X325636250Y-176250000D03*
X315476250Y-176250000D03*
D11*
X320556250Y-176250000D03*
G04 #@! TD*
D12*
G04 #@! TO.C,MX_#9*
X345456250Y-171170000D03*
X332486250Y-173710000D03*
D10*
X344686250Y-176250000D03*
X334526250Y-176250000D03*
D11*
X339606250Y-176250000D03*
G04 #@! TD*
D12*
G04 #@! TO.C,MX_'1*
X383556250Y-209270000D03*
X370586250Y-211810000D03*
D10*
X382786250Y-214350000D03*
X372626250Y-214350000D03*
D11*
X377706250Y-214350000D03*
G04 #@! TD*
D12*
G04 #@! TO.C,MX_-1*
X383556250Y-171170000D03*
X370586250Y-173710000D03*
D10*
X382786250Y-176250000D03*
X372626250Y-176250000D03*
D11*
X377706250Y-176250000D03*
G04 #@! TD*
D12*
G04 #@! TO.C,MX_/1*
X364506250Y-228320000D03*
X351536250Y-230860000D03*
D10*
X363736250Y-233400000D03*
X353576250Y-233400000D03*
D11*
X358656250Y-233400000D03*
G04 #@! TD*
D12*
G04 #@! TO.C,MX_;1*
X364506250Y-209270000D03*
X351536250Y-211810000D03*
D10*
X363736250Y-214350000D03*
X353576250Y-214350000D03*
D11*
X358656250Y-214350000D03*
G04 #@! TD*
D12*
G04 #@! TO.C,MX_=1*
X402606250Y-171170000D03*
X389636250Y-173710000D03*
D10*
X401836250Y-176250000D03*
X391676250Y-176250000D03*
D11*
X396756250Y-176250000D03*
G04 #@! TD*
D12*
G04 #@! TO.C,MX_[1*
X383556250Y-190220000D03*
X370586250Y-192760000D03*
D10*
X382786250Y-195300000D03*
X372626250Y-195300000D03*
D11*
X377706250Y-195300000D03*
G04 #@! TD*
D12*
G04 #@! TO.C,MX_]1*
X402606250Y-190220000D03*
X389636250Y-192760000D03*
D10*
X401836250Y-195300000D03*
X391676250Y-195300000D03*
D11*
X396756250Y-195300000D03*
G04 #@! TD*
D12*
G04 #@! TO.C,MX_A1*
X193056250Y-209270000D03*
X180086250Y-211810000D03*
D10*
X192286250Y-214350000D03*
X182126250Y-214350000D03*
D11*
X187206250Y-214350000D03*
G04 #@! TD*
D12*
G04 #@! TO.C,MX_B1*
X269256250Y-228320000D03*
X256286250Y-230860000D03*
D10*
X268486250Y-233400000D03*
X258326250Y-233400000D03*
D11*
X263406250Y-233400000D03*
G04 #@! TD*
D12*
G04 #@! TO.C,MX_C1*
X231156250Y-228320000D03*
X218186250Y-230860000D03*
D10*
X230386250Y-233400000D03*
X220226250Y-233400000D03*
D11*
X225306250Y-233400000D03*
G04 #@! TD*
D12*
G04 #@! TO.C,MX_D1*
X231156250Y-209270000D03*
X218186250Y-211810000D03*
D10*
X230386250Y-214350000D03*
X220226250Y-214350000D03*
D11*
X225306250Y-214350000D03*
G04 #@! TD*
D12*
G04 #@! TO.C,MX_DOWN1*
X469281250Y-247370000D03*
X456311250Y-249910000D03*
D10*
X468511250Y-252450000D03*
X458351250Y-252450000D03*
D11*
X463431250Y-252450000D03*
G04 #@! TD*
D12*
G04 #@! TO.C,MX_E1*
X231156250Y-190220000D03*
X218186250Y-192760000D03*
D10*
X230386250Y-195300000D03*
X220226250Y-195300000D03*
D11*
X225306250Y-195300000D03*
G04 #@! TD*
D12*
G04 #@! TO.C,MX_ESC1*
X174006250Y-171170000D03*
X161036250Y-173710000D03*
D10*
X173236250Y-176250000D03*
X163076250Y-176250000D03*
D11*
X168156250Y-176250000D03*
G04 #@! TD*
D12*
G04 #@! TO.C,MX_F1*
X250206250Y-209270000D03*
X237236250Y-211810000D03*
D10*
X249436250Y-214350000D03*
X239276250Y-214350000D03*
D11*
X244356250Y-214350000D03*
G04 #@! TD*
D12*
G04 #@! TO.C,MX_G1*
X269256250Y-209270000D03*
X256286250Y-211810000D03*
D10*
X268486250Y-214350000D03*
X258326250Y-214350000D03*
D11*
X263406250Y-214350000D03*
G04 #@! TD*
D12*
G04 #@! TO.C,MX_H1*
X288306250Y-209270000D03*
X275336250Y-211810000D03*
D10*
X287536250Y-214350000D03*
X277376250Y-214350000D03*
D11*
X282456250Y-214350000D03*
G04 #@! TD*
D12*
G04 #@! TO.C,MX_I1*
X326406250Y-190220000D03*
X313436250Y-192760000D03*
D10*
X325636250Y-195300000D03*
X315476250Y-195300000D03*
D11*
X320556250Y-195300000D03*
G04 #@! TD*
D12*
G04 #@! TO.C,MX_J1*
X307356250Y-209270000D03*
X294386250Y-211810000D03*
D10*
X306586250Y-214350000D03*
X296426250Y-214350000D03*
D11*
X301506250Y-214350000D03*
G04 #@! TD*
D12*
G04 #@! TO.C,MX_K1*
X326406250Y-209270000D03*
X313436250Y-211810000D03*
D10*
X325636250Y-214350000D03*
X315476250Y-214350000D03*
D11*
X320556250Y-214350000D03*
G04 #@! TD*
D12*
G04 #@! TO.C,MX_L1*
X345456250Y-209270000D03*
X332486250Y-211810000D03*
D10*
X344686250Y-214350000D03*
X334526250Y-214350000D03*
D11*
X339606250Y-214350000D03*
G04 #@! TD*
D12*
G04 #@! TO.C,MX_LEFT1*
X450231250Y-247370000D03*
X437261250Y-249910000D03*
D10*
X449461250Y-252450000D03*
X439301250Y-252450000D03*
D11*
X444381250Y-252450000D03*
G04 #@! TD*
D12*
G04 #@! TO.C,MX_M1*
X307356250Y-228320000D03*
X294386250Y-230860000D03*
D10*
X306586250Y-233400000D03*
X296426250Y-233400000D03*
D11*
X301506250Y-233400000D03*
G04 #@! TD*
D12*
G04 #@! TO.C,MX_N1*
X288306250Y-228320000D03*
X275336250Y-230860000D03*
D10*
X287536250Y-233400000D03*
X277376250Y-233400000D03*
D11*
X282456250Y-233400000D03*
G04 #@! TD*
D12*
G04 #@! TO.C,MX_O1*
X345456250Y-190220000D03*
X332486250Y-192760000D03*
D10*
X344686250Y-195300000D03*
X334526250Y-195300000D03*
D11*
X339606250Y-195300000D03*
G04 #@! TD*
D12*
G04 #@! TO.C,MX_P1*
X364506250Y-190220000D03*
X351536250Y-192760000D03*
D10*
X363736250Y-195300000D03*
X353576250Y-195300000D03*
D11*
X358656250Y-195300000D03*
G04 #@! TD*
D12*
G04 #@! TO.C,MX_Q1*
X193056250Y-190220000D03*
X180086250Y-192760000D03*
D10*
X192286250Y-195300000D03*
X182126250Y-195300000D03*
D11*
X187206250Y-195300000D03*
G04 #@! TD*
D12*
G04 #@! TO.C,MX_R1*
X250206250Y-190220000D03*
X237236250Y-192760000D03*
D10*
X249436250Y-195300000D03*
X239276250Y-195300000D03*
D11*
X244356250Y-195300000D03*
G04 #@! TD*
D12*
G04 #@! TO.C,MX_RIGHT1*
X488331250Y-247370000D03*
X475361250Y-249910000D03*
D10*
X487561250Y-252450000D03*
X477401250Y-252450000D03*
D11*
X482481250Y-252450000D03*
G04 #@! TD*
D12*
G04 #@! TO.C,MX_S1*
X212106250Y-209270000D03*
X199136250Y-211810000D03*
D10*
X211336250Y-214350000D03*
X201176250Y-214350000D03*
D11*
X206256250Y-214350000D03*
G04 #@! TD*
D12*
G04 #@! TO.C,MX_T1*
X269256250Y-190220000D03*
X256286250Y-192760000D03*
D10*
X268486250Y-195300000D03*
X258326250Y-195300000D03*
D11*
X263406250Y-195300000D03*
G04 #@! TD*
D12*
G04 #@! TO.C,MX_V1*
X250206250Y-228320000D03*
X237236250Y-230860000D03*
D10*
X249436250Y-233400000D03*
X239276250Y-233400000D03*
D11*
X244356250Y-233400000D03*
G04 #@! TD*
D12*
G04 #@! TO.C,MX_W1*
X212106250Y-190220000D03*
X199136250Y-192760000D03*
D10*
X211336250Y-195300000D03*
X201176250Y-195300000D03*
D11*
X206256250Y-195300000D03*
G04 #@! TD*
D12*
G04 #@! TO.C,MX_X1*
X212106250Y-228320000D03*
X199136250Y-230860000D03*
D10*
X211336250Y-233400000D03*
X201176250Y-233400000D03*
D11*
X206256250Y-233400000D03*
G04 #@! TD*
D12*
G04 #@! TO.C,MX_Y1*
X288306250Y-190220000D03*
X275336250Y-192760000D03*
D10*
X287536250Y-195300000D03*
X277376250Y-195300000D03*
D11*
X282456250Y-195300000D03*
G04 #@! TD*
D12*
G04 #@! TO.C,MX_Z1*
X193056250Y-228320000D03*
X180086250Y-230860000D03*
D10*
X192286250Y-233400000D03*
X182126250Y-233400000D03*
D11*
X187206250Y-233400000D03*
G04 #@! TD*
G04 #@! TO.C,MX_SPACE1*
X272931250Y-252450000D03*
D10*
X278011250Y-252450000D03*
X267851250Y-252450000D03*
D12*
X278781250Y-247370000D03*
X265811250Y-249910000D03*
D11*
X215781250Y-260705000D03*
X330081250Y-260705000D03*
D13*
X215781250Y-245465000D03*
X330081250Y-245465000D03*
G04 #@! TD*
D14*
G04 #@! TO.C,U1*
G36*
X102300000Y-233018750D02*
G01*
X102300000Y-233518750D01*
X100800000Y-233518750D01*
X100800000Y-233018750D01*
X102300000Y-233018750D01*
G37*
G36*
X102300000Y-233793750D02*
G01*
X102300000Y-234343750D01*
X100800000Y-234343750D01*
X100800000Y-233793750D01*
X102300000Y-233793750D01*
G37*
G36*
X102300000Y-234593750D02*
G01*
X102300000Y-235143750D01*
X100800000Y-235143750D01*
X100800000Y-234593750D01*
X102300000Y-234593750D01*
G37*
G36*
X102300000Y-235393750D02*
G01*
X102300000Y-235943750D01*
X100800000Y-235943750D01*
X100800000Y-235393750D01*
X102300000Y-235393750D01*
G37*
G36*
X102300000Y-236193750D02*
G01*
X102300000Y-236743750D01*
X100800000Y-236743750D01*
X100800000Y-236193750D01*
X102300000Y-236193750D01*
G37*
G36*
X102300000Y-236993750D02*
G01*
X102300000Y-237543750D01*
X100800000Y-237543750D01*
X100800000Y-236993750D01*
X102300000Y-236993750D01*
G37*
G36*
X102300000Y-237793750D02*
G01*
X102300000Y-238343750D01*
X100800000Y-238343750D01*
X100800000Y-237793750D01*
X102300000Y-237793750D01*
G37*
G36*
X102300000Y-238593750D02*
G01*
X102300000Y-239143750D01*
X100800000Y-239143750D01*
X100800000Y-238593750D01*
X102300000Y-238593750D01*
G37*
G36*
X102300000Y-239393750D02*
G01*
X102300000Y-239943750D01*
X100800000Y-239943750D01*
X100800000Y-239393750D01*
X102300000Y-239393750D01*
G37*
G36*
X102300000Y-240193750D02*
G01*
X102300000Y-240743750D01*
X100800000Y-240743750D01*
X100800000Y-240193750D01*
X102300000Y-240193750D01*
G37*
G36*
X102300000Y-240993750D02*
G01*
X102300000Y-241543750D01*
X100800000Y-241543750D01*
X100800000Y-240993750D01*
X102300000Y-240993750D01*
G37*
G36*
X102975000Y-242218750D02*
G01*
X103525000Y-242218750D01*
X103525000Y-243718750D01*
X102975000Y-243718750D01*
X102975000Y-242218750D01*
G37*
G36*
X103775000Y-242218750D02*
G01*
X104325000Y-242218750D01*
X104325000Y-243718750D01*
X103775000Y-243718750D01*
X103775000Y-242218750D01*
G37*
G36*
X104575000Y-242218750D02*
G01*
X105125000Y-242218750D01*
X105125000Y-243718750D01*
X104575000Y-243718750D01*
X104575000Y-242218750D01*
G37*
G36*
X105375000Y-242218750D02*
G01*
X105925000Y-242218750D01*
X105925000Y-243718750D01*
X105375000Y-243718750D01*
X105375000Y-242218750D01*
G37*
G36*
X106175000Y-242218750D02*
G01*
X106725000Y-242218750D01*
X106725000Y-243718750D01*
X106175000Y-243718750D01*
X106175000Y-242218750D01*
G37*
G36*
X106975000Y-242218750D02*
G01*
X107525000Y-242218750D01*
X107525000Y-243718750D01*
X106975000Y-243718750D01*
X106975000Y-242218750D01*
G37*
G36*
X107775000Y-242218750D02*
G01*
X108325000Y-242218750D01*
X108325000Y-243718750D01*
X107775000Y-243718750D01*
X107775000Y-242218750D01*
G37*
G36*
X108575000Y-242218750D02*
G01*
X109125000Y-242218750D01*
X109125000Y-243718750D01*
X108575000Y-243718750D01*
X108575000Y-242218750D01*
G37*
G36*
X109375000Y-242218750D02*
G01*
X109925000Y-242218750D01*
X109925000Y-243718750D01*
X109375000Y-243718750D01*
X109375000Y-242218750D01*
G37*
G36*
X110175000Y-242218750D02*
G01*
X110725000Y-242218750D01*
X110725000Y-243718750D01*
X110175000Y-243718750D01*
X110175000Y-242218750D01*
G37*
G36*
X110975000Y-242218750D02*
G01*
X111525000Y-242218750D01*
X111525000Y-243718750D01*
X110975000Y-243718750D01*
X110975000Y-242218750D01*
G37*
G36*
X113700000Y-240993750D02*
G01*
X113700000Y-241543750D01*
X112200000Y-241543750D01*
X112200000Y-240993750D01*
X113700000Y-240993750D01*
G37*
G36*
X113700000Y-240193750D02*
G01*
X113700000Y-240743750D01*
X112200000Y-240743750D01*
X112200000Y-240193750D01*
X113700000Y-240193750D01*
G37*
G36*
X113700000Y-239393750D02*
G01*
X113700000Y-239943750D01*
X112200000Y-239943750D01*
X112200000Y-239393750D01*
X113700000Y-239393750D01*
G37*
G36*
X113700000Y-238593750D02*
G01*
X113700000Y-239143750D01*
X112200000Y-239143750D01*
X112200000Y-238593750D01*
X113700000Y-238593750D01*
G37*
G36*
X113700000Y-237793750D02*
G01*
X113700000Y-238343750D01*
X112200000Y-238343750D01*
X112200000Y-237793750D01*
X113700000Y-237793750D01*
G37*
G36*
X113700000Y-236993750D02*
G01*
X113700000Y-237543750D01*
X112200000Y-237543750D01*
X112200000Y-236993750D01*
X113700000Y-236993750D01*
G37*
G36*
X113700000Y-236193750D02*
G01*
X113700000Y-236743750D01*
X112200000Y-236743750D01*
X112200000Y-236193750D01*
X113700000Y-236193750D01*
G37*
G36*
X113700000Y-235393750D02*
G01*
X113700000Y-235943750D01*
X112200000Y-235943750D01*
X112200000Y-235393750D01*
X113700000Y-235393750D01*
G37*
G36*
X113700000Y-234593750D02*
G01*
X113700000Y-235143750D01*
X112200000Y-235143750D01*
X112200000Y-234593750D01*
X113700000Y-234593750D01*
G37*
G36*
X113700000Y-233793750D02*
G01*
X113700000Y-234343750D01*
X112200000Y-234343750D01*
X112200000Y-233793750D01*
X113700000Y-233793750D01*
G37*
G36*
X113700000Y-232993750D02*
G01*
X113700000Y-233543750D01*
X112200000Y-233543750D01*
X112200000Y-232993750D01*
X113700000Y-232993750D01*
G37*
G36*
X110975000Y-230818750D02*
G01*
X111525000Y-230818750D01*
X111525000Y-232318750D01*
X110975000Y-232318750D01*
X110975000Y-230818750D01*
G37*
G36*
X110175000Y-230818750D02*
G01*
X110725000Y-230818750D01*
X110725000Y-232318750D01*
X110175000Y-232318750D01*
X110175000Y-230818750D01*
G37*
G36*
X109375000Y-230818750D02*
G01*
X109925000Y-230818750D01*
X109925000Y-232318750D01*
X109375000Y-232318750D01*
X109375000Y-230818750D01*
G37*
G36*
X108575000Y-230818750D02*
G01*
X109125000Y-230818750D01*
X109125000Y-232318750D01*
X108575000Y-232318750D01*
X108575000Y-230818750D01*
G37*
G36*
X107775000Y-230818750D02*
G01*
X108325000Y-230818750D01*
X108325000Y-232318750D01*
X107775000Y-232318750D01*
X107775000Y-230818750D01*
G37*
G36*
X106975000Y-230818750D02*
G01*
X107525000Y-230818750D01*
X107525000Y-232318750D01*
X106975000Y-232318750D01*
X106975000Y-230818750D01*
G37*
G36*
X106175000Y-230818750D02*
G01*
X106725000Y-230818750D01*
X106725000Y-232318750D01*
X106175000Y-232318750D01*
X106175000Y-230818750D01*
G37*
G36*
X105375000Y-230818750D02*
G01*
X105925000Y-230818750D01*
X105925000Y-232318750D01*
X105375000Y-232318750D01*
X105375000Y-230818750D01*
G37*
G36*
X104600000Y-230818750D02*
G01*
X105100000Y-230818750D01*
X105100000Y-232318750D01*
X104600000Y-232318750D01*
X104600000Y-230818750D01*
G37*
G36*
X103800000Y-230818750D02*
G01*
X104300000Y-230818750D01*
X104300000Y-232318750D01*
X103800000Y-232318750D01*
X103800000Y-230818750D01*
G37*
D15*
X103250000Y-231568750D03*
G04 #@! TD*
D10*
G04 #@! TO.C,MX_BKSPC1*
X430411250Y-176250000D03*
X420251250Y-176250000D03*
D11*
X425331250Y-176250000D03*
D12*
X418211250Y-173710000D03*
X431181250Y-171170000D03*
D11*
X413393250Y-184505000D03*
X437269250Y-184505000D03*
D13*
X413393250Y-169265000D03*
X437269250Y-169265000D03*
G04 #@! TD*
D11*
G04 #@! TO.C,MX_\u005C1*
X420568750Y-195300000D03*
D12*
X413448750Y-192760000D03*
X426418750Y-190220000D03*
D10*
X415488750Y-195300000D03*
X425648750Y-195300000D03*
G04 #@! TD*
D11*
G04 #@! TO.C,MX_RCTRL1*
X401518750Y-252450000D03*
D12*
X394398750Y-249910000D03*
X407368750Y-247370000D03*
D10*
X396438750Y-252450000D03*
X406598750Y-252450000D03*
G04 #@! TD*
D11*
G04 #@! TO.C,MX_TAB1*
X163393750Y-195300000D03*
D12*
X156273750Y-192760000D03*
X169243750Y-190220000D03*
D10*
X158313750Y-195300000D03*
X168473750Y-195300000D03*
G04 #@! TD*
D11*
G04 #@! TO.C,MX_LCTRL1*
X144343750Y-252450000D03*
D12*
X137223750Y-249910000D03*
X150193750Y-247370000D03*
D10*
X139263750Y-252450000D03*
X149423750Y-252450000D03*
G04 #@! TD*
G04 #@! TO.C,MX_ENTER1*
X413742500Y-214350000D03*
X403582500Y-214350000D03*
D12*
X414512500Y-209270000D03*
X401542500Y-211810000D03*
D11*
X396724500Y-222605000D03*
X420600500Y-222605000D03*
D13*
X396724500Y-207365000D03*
X420600500Y-207365000D03*
D11*
X408662500Y-214350000D03*
G04 #@! TD*
D10*
G04 #@! TO.C,MX_LSHIFT1*
X161330000Y-233400000D03*
X151170000Y-233400000D03*
D12*
X162100000Y-228320000D03*
X149130000Y-230860000D03*
D11*
X144312000Y-241655000D03*
X168188000Y-241655000D03*
D13*
X144312000Y-226415000D03*
X168188000Y-226415000D03*
D11*
X156250000Y-233400000D03*
G04 #@! TD*
D10*
G04 #@! TO.C,MX_RSHIFT1*
X399455000Y-233400000D03*
X389295000Y-233400000D03*
D12*
X400225000Y-228320000D03*
X387255000Y-230860000D03*
D11*
X382437000Y-241655000D03*
X406313000Y-241655000D03*
D13*
X382437000Y-226415000D03*
X406313000Y-226415000D03*
D11*
X394375000Y-233400000D03*
G04 #@! TD*
G04 #@! TO.C,MX_LALT1*
X194350000Y-252450000D03*
D12*
X187230000Y-249910000D03*
X200200000Y-247370000D03*
D10*
X189270000Y-252450000D03*
X199430000Y-252450000D03*
G04 #@! TD*
D11*
G04 #@! TO.C,MX_LCODE1*
X170537500Y-252450000D03*
D12*
X163417500Y-249910000D03*
X176387500Y-247370000D03*
D10*
X165457500Y-252450000D03*
X175617500Y-252450000D03*
G04 #@! TD*
D11*
G04 #@! TO.C,MX_RALT1*
X351512500Y-252450000D03*
D12*
X344392500Y-249910000D03*
X357362500Y-247370000D03*
D10*
X346432500Y-252450000D03*
X356592500Y-252450000D03*
G04 #@! TD*
D11*
G04 #@! TO.C,MX_RCODE1*
X375325000Y-252450000D03*
D12*
X368205000Y-249910000D03*
X381175000Y-247370000D03*
D10*
X370245000Y-252450000D03*
X380405000Y-252450000D03*
G04 #@! TD*
D16*
G04 #@! TO.C,SW2*
X102305500Y-189225000D03*
X102305500Y-194225000D03*
X102305500Y-191725000D03*
X116805500Y-194225000D03*
X116805500Y-189225000D03*
D17*
X109805500Y-197975000D03*
X109805500Y-185475000D03*
G04 #@! TD*
D18*
G04 #@! TO.C,R5*
X117090000Y-232560000D03*
X115590000Y-232560000D03*
G04 #@! TD*
G04 #@! TO.C,U2*
G36*
G01*
X132125000Y-159665000D02*
X132125000Y-159965000D01*
G75*
G02*
X132000000Y-160090000I-125000J0D01*
G01*
X132000000Y-160090000D01*
G75*
G02*
X131875000Y-159965000I0J125000D01*
G01*
X131875000Y-159665000D01*
G75*
G02*
X132000000Y-159540000I125000J0D01*
G01*
X132000000Y-159540000D01*
G75*
G02*
X132125000Y-159665000I0J-125000D01*
G01*
G37*
D19*
X131500000Y-159815000D03*
D20*
X131000000Y-159815000D03*
D19*
X130500000Y-159815000D03*
X130000000Y-159815000D03*
X131500000Y-159045000D03*
X130000000Y-159045000D03*
X130500000Y-159045000D03*
X132000000Y-159045000D03*
D20*
X131000000Y-159045000D03*
G04 #@! TD*
D21*
G04 #@! TO.C,REF\u002A\u002A*
X123310000Y-164370000D03*
X124560000Y-164370000D03*
X125810000Y-164370000D03*
X122060000Y-164370000D03*
X120810000Y-164370000D03*
G04 #@! TD*
G04 #@! TO.C,REF\u002A\u002A*
X120810000Y-165720000D03*
X122060000Y-165720000D03*
X125810000Y-165720000D03*
X124560000Y-165720000D03*
X123310000Y-165720000D03*
G04 #@! TD*
D14*
G04 #@! TO.C,C1*
G36*
X120432322Y-241162652D02*
G01*
X120962652Y-240632322D01*
X121528338Y-241198008D01*
X120998008Y-241728338D01*
X120432322Y-241162652D01*
G37*
G36*
X119371662Y-240101992D02*
G01*
X119901992Y-239571662D01*
X120467678Y-240137348D01*
X119937348Y-240667678D01*
X119371662Y-240101992D01*
G37*
G04 #@! TD*
G04 #@! TO.C,C2*
G36*
X119501992Y-234728338D02*
G01*
X118971662Y-234198008D01*
X119537348Y-233632322D01*
X120067678Y-234162652D01*
X119501992Y-234728338D01*
G37*
G36*
X120562652Y-233667678D02*
G01*
X120032322Y-233137348D01*
X120598008Y-232571662D01*
X121128338Y-233101992D01*
X120562652Y-233667678D01*
G37*
G04 #@! TD*
D22*
G04 #@! TO.C,C3*
X103140000Y-227120000D03*
X101640000Y-227120000D03*
G04 #@! TD*
G04 #@! TO.C,C4*
X114500000Y-245450000D03*
X113000000Y-245450000D03*
G04 #@! TD*
G04 #@! TO.C,C6*
X106860000Y-226880000D03*
X108360000Y-226880000D03*
G04 #@! TD*
G04 #@! TO.C,D1*
G36*
G01*
X122590000Y-160610000D02*
X122590000Y-159910000D01*
G75*
G02*
X122840000Y-159660000I250000J0D01*
G01*
X123340000Y-159660000D01*
G75*
G02*
X123590000Y-159910000I0J-250000D01*
G01*
X123590000Y-160610000D01*
G75*
G02*
X123340000Y-160860000I-250000J0D01*
G01*
X122840000Y-160860000D01*
G75*
G02*
X122590000Y-160610000I0J250000D01*
G01*
G37*
G36*
G01*
X125890000Y-160610000D02*
X125890000Y-159910000D01*
G75*
G02*
X126140000Y-159660000I250000J0D01*
G01*
X126640000Y-159660000D01*
G75*
G02*
X126890000Y-159910000I0J-250000D01*
G01*
X126890000Y-160610000D01*
G75*
G02*
X126640000Y-160860000I-250000J0D01*
G01*
X126140000Y-160860000D01*
G75*
G02*
X125890000Y-160610000I0J250000D01*
G01*
G37*
G04 #@! TD*
D23*
G04 #@! TO.C,F1*
X123440000Y-156310000D03*
X123440000Y-153910000D03*
G04 #@! TD*
G04 #@! TO.C,J1*
G36*
G01*
X133150000Y-157585000D02*
X133150000Y-156435000D01*
G75*
G02*
X133300000Y-156285000I150000J0D01*
G01*
X133600000Y-156285000D01*
G75*
G02*
X133750000Y-156435000I0J-150000D01*
G01*
X133750000Y-157585000D01*
G75*
G02*
X133600000Y-157735000I-150000J0D01*
G01*
X133300000Y-157735000D01*
G75*
G02*
X133150000Y-157585000I0J150000D01*
G01*
G37*
G36*
G01*
X133950000Y-157585000D02*
X133950000Y-156435000D01*
G75*
G02*
X134100000Y-156285000I150000J0D01*
G01*
X134400000Y-156285000D01*
G75*
G02*
X134550000Y-156435000I0J-150000D01*
G01*
X134550000Y-157585000D01*
G75*
G02*
X134400000Y-157735000I-150000J0D01*
G01*
X134100000Y-157735000D01*
G75*
G02*
X133950000Y-157585000I0J150000D01*
G01*
G37*
G36*
G01*
X128250000Y-157585000D02*
X128250000Y-156435000D01*
G75*
G02*
X128400000Y-156285000I150000J0D01*
G01*
X128700000Y-156285000D01*
G75*
G02*
X128850000Y-156435000I0J-150000D01*
G01*
X128850000Y-157585000D01*
G75*
G02*
X128700000Y-157735000I-150000J0D01*
G01*
X128400000Y-157735000D01*
G75*
G02*
X128250000Y-157585000I0J150000D01*
G01*
G37*
D24*
X126700000Y-156235000D03*
G36*
G01*
X131100000Y-157660000D02*
X131100000Y-156360000D01*
G75*
G02*
X131175000Y-156285000I75000J0D01*
G01*
X131325000Y-156285000D01*
G75*
G02*
X131400000Y-156360000I0J-75000D01*
G01*
X131400000Y-157660000D01*
G75*
G02*
X131325000Y-157735000I-75000J0D01*
G01*
X131175000Y-157735000D01*
G75*
G02*
X131100000Y-157660000I0J75000D01*
G01*
G37*
G36*
G01*
X131600000Y-157660000D02*
X131600000Y-156360000D01*
G75*
G02*
X131675000Y-156285000I75000J0D01*
G01*
X131825000Y-156285000D01*
G75*
G02*
X131900000Y-156360000I0J-75000D01*
G01*
X131900000Y-157660000D01*
G75*
G02*
X131825000Y-157735000I-75000J0D01*
G01*
X131675000Y-157735000D01*
G75*
G02*
X131600000Y-157660000I0J75000D01*
G01*
G37*
G36*
G01*
X132100000Y-157660000D02*
X132100000Y-156360000D01*
G75*
G02*
X132175000Y-156285000I75000J0D01*
G01*
X132325000Y-156285000D01*
G75*
G02*
X132400000Y-156360000I0J-75000D01*
G01*
X132400000Y-157660000D01*
G75*
G02*
X132325000Y-157735000I-75000J0D01*
G01*
X132175000Y-157735000D01*
G75*
G02*
X132100000Y-157660000I0J75000D01*
G01*
G37*
G36*
G01*
X132600000Y-157660000D02*
X132600000Y-156360000D01*
G75*
G02*
X132675000Y-156285000I75000J0D01*
G01*
X132825000Y-156285000D01*
G75*
G02*
X132900000Y-156360000I0J-75000D01*
G01*
X132900000Y-157660000D01*
G75*
G02*
X132825000Y-157735000I-75000J0D01*
G01*
X132675000Y-157735000D01*
G75*
G02*
X132600000Y-157660000I0J75000D01*
G01*
G37*
G36*
G01*
X130596000Y-157660000D02*
X130596000Y-156360000D01*
G75*
G02*
X130671000Y-156285000I75000J0D01*
G01*
X130821000Y-156285000D01*
G75*
G02*
X130896000Y-156360000I0J-75000D01*
G01*
X130896000Y-157660000D01*
G75*
G02*
X130821000Y-157735000I-75000J0D01*
G01*
X130671000Y-157735000D01*
G75*
G02*
X130596000Y-157660000I0J75000D01*
G01*
G37*
G36*
G01*
X130100000Y-157660000D02*
X130100000Y-156360000D01*
G75*
G02*
X130175000Y-156285000I75000J0D01*
G01*
X130325000Y-156285000D01*
G75*
G02*
X130400000Y-156360000I0J-75000D01*
G01*
X130400000Y-157660000D01*
G75*
G02*
X130325000Y-157735000I-75000J0D01*
G01*
X130175000Y-157735000D01*
G75*
G02*
X130100000Y-157660000I0J75000D01*
G01*
G37*
G36*
G01*
X129600000Y-157660000D02*
X129600000Y-156360000D01*
G75*
G02*
X129675000Y-156285000I75000J0D01*
G01*
X129825000Y-156285000D01*
G75*
G02*
X129900000Y-156360000I0J-75000D01*
G01*
X129900000Y-157660000D01*
G75*
G02*
X129825000Y-157735000I-75000J0D01*
G01*
X129675000Y-157735000D01*
G75*
G02*
X129600000Y-157660000I0J75000D01*
G01*
G37*
G36*
G01*
X129100000Y-157660000D02*
X129100000Y-156360000D01*
G75*
G02*
X129175000Y-156285000I75000J0D01*
G01*
X129325000Y-156285000D01*
G75*
G02*
X129400000Y-156360000I0J-75000D01*
G01*
X129400000Y-157660000D01*
G75*
G02*
X129325000Y-157735000I-75000J0D01*
G01*
X129175000Y-157735000D01*
G75*
G02*
X129100000Y-157660000I0J75000D01*
G01*
G37*
G36*
G01*
X127450000Y-157585000D02*
X127450000Y-156435000D01*
G75*
G02*
X127600000Y-156285000I150000J0D01*
G01*
X127900000Y-156285000D01*
G75*
G02*
X128050000Y-156435000I0J-150000D01*
G01*
X128050000Y-157585000D01*
G75*
G02*
X127900000Y-157735000I-150000J0D01*
G01*
X127600000Y-157735000D01*
G75*
G02*
X127450000Y-157585000I0J150000D01*
G01*
G37*
D25*
X126700000Y-152035000D03*
D26*
X128110000Y-155684000D03*
X133890000Y-155684000D03*
D25*
X135300000Y-152035000D03*
D24*
X135300000Y-156235000D03*
G04 #@! TD*
D27*
G04 #@! TO.C,MH1*
X138800000Y-157400000D03*
G04 #@! TD*
D28*
G04 #@! TO.C,R1*
X128110000Y-159500000D03*
X128110000Y-161000000D03*
G04 #@! TD*
G04 #@! TO.C,R2*
X133870000Y-159500000D03*
X133870000Y-161000000D03*
G04 #@! TD*
G04 #@! TO.C,R3*
X127731250Y-212745000D03*
X127731250Y-211245000D03*
G04 #@! TD*
G04 #@! TO.C,R4*
X129390000Y-212740000D03*
X129390000Y-211240000D03*
G04 #@! TD*
D18*
G04 #@! TO.C,R6*
X101000000Y-245470000D03*
X102500000Y-245470000D03*
G04 #@! TD*
D14*
G04 #@! TO.C,Y1*
G36*
X119146016Y-238599569D02*
G01*
X118297488Y-239448097D01*
X117307538Y-238458147D01*
X118156066Y-237609619D01*
X119146016Y-238599569D01*
G37*
G36*
X117590381Y-237043934D02*
G01*
X116741853Y-237892462D01*
X115751903Y-236902512D01*
X116600431Y-236053984D01*
X117590381Y-237043934D01*
G37*
G36*
X118792462Y-235841853D02*
G01*
X117943934Y-236690381D01*
X116953984Y-235700431D01*
X117802512Y-234851903D01*
X118792462Y-235841853D01*
G37*
G36*
X120348097Y-237397488D02*
G01*
X119499569Y-238246016D01*
X118509619Y-237256066D01*
X119358147Y-236407538D01*
X120348097Y-237397488D01*
G37*
G04 #@! TD*
G04 #@! TO.C,L1*
G36*
G01*
X110980000Y-152199999D02*
X110980000Y-153600001D01*
G75*
G02*
X110730001Y-153850000I-249999J0D01*
G01*
X110179999Y-153850000D01*
G75*
G02*
X109930000Y-153600001I0J249999D01*
G01*
X109930000Y-152199999D01*
G75*
G02*
X110179999Y-151950000I249999J0D01*
G01*
X110730001Y-151950000D01*
G75*
G02*
X110980000Y-152199999I0J-249999D01*
G01*
G37*
G36*
G01*
X107830000Y-152199999D02*
X107830000Y-153600001D01*
G75*
G02*
X107580001Y-153850000I-249999J0D01*
G01*
X107029999Y-153850000D01*
G75*
G02*
X106780000Y-153600001I0J249999D01*
G01*
X106780000Y-152199999D01*
G75*
G02*
X107029999Y-151950000I249999J0D01*
G01*
X107580001Y-151950000D01*
G75*
G02*
X107830000Y-152199999I0J-249999D01*
G01*
G37*
G04 #@! TD*
D29*
G04 #@! TO.C,C5*
X98650000Y-242310000D03*
X98650000Y-243810000D03*
G04 #@! TD*
D27*
G04 #@! TO.C,MH2*
X107800000Y-157450000D03*
G04 #@! TD*
D30*
G04 #@! TO.C,J2*
X131687500Y-191740000D03*
X125487500Y-191740000D03*
D31*
X130087500Y-195615000D03*
X127087500Y-195615000D03*
X128087500Y-195615000D03*
X129087500Y-195615000D03*
G04 #@! TD*
G04 #@! TO.C,J3*
X116400000Y-151135000D03*
X117400000Y-151135000D03*
X118400000Y-151135000D03*
X115400000Y-151135000D03*
D30*
X120000000Y-155010000D03*
X113800000Y-155010000D03*
G04 #@! TD*
D32*
G04 #@! TO.C,SW1*
X132440000Y-232750000D03*
X126240000Y-236450000D03*
X132440000Y-236450000D03*
X126240000Y-232750000D03*
G04 #@! TD*
D29*
G04 #@! TO.C,C7*
X98650000Y-233750000D03*
X98650000Y-232250000D03*
G04 #@! TD*
G04 #@! TO.C,D8*
G36*
G01*
X173362500Y-182162500D02*
X174062500Y-182162500D01*
G75*
G02*
X174312500Y-182412500I0J-250000D01*
G01*
X174312500Y-182912500D01*
G75*
G02*
X174062500Y-183162500I-250000J0D01*
G01*
X173362500Y-183162500D01*
G75*
G02*
X173112500Y-182912500I0J250000D01*
G01*
X173112500Y-182412500D01*
G75*
G02*
X173362500Y-182162500I250000J0D01*
G01*
G37*
G36*
G01*
X173362500Y-178862500D02*
X174062500Y-178862500D01*
G75*
G02*
X174312500Y-179112500I0J-250000D01*
G01*
X174312500Y-179612500D01*
G75*
G02*
X174062500Y-179862500I-250000J0D01*
G01*
X173362500Y-179862500D01*
G75*
G02*
X173112500Y-179612500I0J250000D01*
G01*
X173112500Y-179112500D01*
G75*
G02*
X173362500Y-178862500I250000J0D01*
G01*
G37*
G04 #@! TD*
G04 #@! TO.C,D9*
G36*
G01*
X192412500Y-178862500D02*
X193112500Y-178862500D01*
G75*
G02*
X193362500Y-179112500I0J-250000D01*
G01*
X193362500Y-179612500D01*
G75*
G02*
X193112500Y-179862500I-250000J0D01*
G01*
X192412500Y-179862500D01*
G75*
G02*
X192162500Y-179612500I0J250000D01*
G01*
X192162500Y-179112500D01*
G75*
G02*
X192412500Y-178862500I250000J0D01*
G01*
G37*
G36*
G01*
X192412500Y-182162500D02*
X193112500Y-182162500D01*
G75*
G02*
X193362500Y-182412500I0J-250000D01*
G01*
X193362500Y-182912500D01*
G75*
G02*
X193112500Y-183162500I-250000J0D01*
G01*
X192412500Y-183162500D01*
G75*
G02*
X192162500Y-182912500I0J250000D01*
G01*
X192162500Y-182412500D01*
G75*
G02*
X192412500Y-182162500I250000J0D01*
G01*
G37*
G04 #@! TD*
G04 #@! TO.C,D10*
G36*
G01*
X211462500Y-182162500D02*
X212162500Y-182162500D01*
G75*
G02*
X212412500Y-182412500I0J-250000D01*
G01*
X212412500Y-182912500D01*
G75*
G02*
X212162500Y-183162500I-250000J0D01*
G01*
X211462500Y-183162500D01*
G75*
G02*
X211212500Y-182912500I0J250000D01*
G01*
X211212500Y-182412500D01*
G75*
G02*
X211462500Y-182162500I250000J0D01*
G01*
G37*
G36*
G01*
X211462500Y-178862500D02*
X212162500Y-178862500D01*
G75*
G02*
X212412500Y-179112500I0J-250000D01*
G01*
X212412500Y-179612500D01*
G75*
G02*
X212162500Y-179862500I-250000J0D01*
G01*
X211462500Y-179862500D01*
G75*
G02*
X211212500Y-179612500I0J250000D01*
G01*
X211212500Y-179112500D01*
G75*
G02*
X211462500Y-178862500I250000J0D01*
G01*
G37*
G04 #@! TD*
G04 #@! TO.C,D11*
G36*
G01*
X230512500Y-178862500D02*
X231212500Y-178862500D01*
G75*
G02*
X231462500Y-179112500I0J-250000D01*
G01*
X231462500Y-179612500D01*
G75*
G02*
X231212500Y-179862500I-250000J0D01*
G01*
X230512500Y-179862500D01*
G75*
G02*
X230262500Y-179612500I0J250000D01*
G01*
X230262500Y-179112500D01*
G75*
G02*
X230512500Y-178862500I250000J0D01*
G01*
G37*
G36*
G01*
X230512500Y-182162500D02*
X231212500Y-182162500D01*
G75*
G02*
X231462500Y-182412500I0J-250000D01*
G01*
X231462500Y-182912500D01*
G75*
G02*
X231212500Y-183162500I-250000J0D01*
G01*
X230512500Y-183162500D01*
G75*
G02*
X230262500Y-182912500I0J250000D01*
G01*
X230262500Y-182412500D01*
G75*
G02*
X230512500Y-182162500I250000J0D01*
G01*
G37*
G04 #@! TD*
G04 #@! TO.C,D12*
G36*
G01*
X249562500Y-182162500D02*
X250262500Y-182162500D01*
G75*
G02*
X250512500Y-182412500I0J-250000D01*
G01*
X250512500Y-182912500D01*
G75*
G02*
X250262500Y-183162500I-250000J0D01*
G01*
X249562500Y-183162500D01*
G75*
G02*
X249312500Y-182912500I0J250000D01*
G01*
X249312500Y-182412500D01*
G75*
G02*
X249562500Y-182162500I250000J0D01*
G01*
G37*
G36*
G01*
X249562500Y-178862500D02*
X250262500Y-178862500D01*
G75*
G02*
X250512500Y-179112500I0J-250000D01*
G01*
X250512500Y-179612500D01*
G75*
G02*
X250262500Y-179862500I-250000J0D01*
G01*
X249562500Y-179862500D01*
G75*
G02*
X249312500Y-179612500I0J250000D01*
G01*
X249312500Y-179112500D01*
G75*
G02*
X249562500Y-178862500I250000J0D01*
G01*
G37*
G04 #@! TD*
G04 #@! TO.C,D13*
G36*
G01*
X268612500Y-182162500D02*
X269312500Y-182162500D01*
G75*
G02*
X269562500Y-182412500I0J-250000D01*
G01*
X269562500Y-182912500D01*
G75*
G02*
X269312500Y-183162500I-250000J0D01*
G01*
X268612500Y-183162500D01*
G75*
G02*
X268362500Y-182912500I0J250000D01*
G01*
X268362500Y-182412500D01*
G75*
G02*
X268612500Y-182162500I250000J0D01*
G01*
G37*
G36*
G01*
X268612500Y-178862500D02*
X269312500Y-178862500D01*
G75*
G02*
X269562500Y-179112500I0J-250000D01*
G01*
X269562500Y-179612500D01*
G75*
G02*
X269312500Y-179862500I-250000J0D01*
G01*
X268612500Y-179862500D01*
G75*
G02*
X268362500Y-179612500I0J250000D01*
G01*
X268362500Y-179112500D01*
G75*
G02*
X268612500Y-178862500I250000J0D01*
G01*
G37*
G04 #@! TD*
G04 #@! TO.C,D14*
G36*
G01*
X287662500Y-178862500D02*
X288362500Y-178862500D01*
G75*
G02*
X288612500Y-179112500I0J-250000D01*
G01*
X288612500Y-179612500D01*
G75*
G02*
X288362500Y-179862500I-250000J0D01*
G01*
X287662500Y-179862500D01*
G75*
G02*
X287412500Y-179612500I0J250000D01*
G01*
X287412500Y-179112500D01*
G75*
G02*
X287662500Y-178862500I250000J0D01*
G01*
G37*
G36*
G01*
X287662500Y-182162500D02*
X288362500Y-182162500D01*
G75*
G02*
X288612500Y-182412500I0J-250000D01*
G01*
X288612500Y-182912500D01*
G75*
G02*
X288362500Y-183162500I-250000J0D01*
G01*
X287662500Y-183162500D01*
G75*
G02*
X287412500Y-182912500I0J250000D01*
G01*
X287412500Y-182412500D01*
G75*
G02*
X287662500Y-182162500I250000J0D01*
G01*
G37*
G04 #@! TD*
G04 #@! TO.C,D15*
G36*
G01*
X306712500Y-178862500D02*
X307412500Y-178862500D01*
G75*
G02*
X307662500Y-179112500I0J-250000D01*
G01*
X307662500Y-179612500D01*
G75*
G02*
X307412500Y-179862500I-250000J0D01*
G01*
X306712500Y-179862500D01*
G75*
G02*
X306462500Y-179612500I0J250000D01*
G01*
X306462500Y-179112500D01*
G75*
G02*
X306712500Y-178862500I250000J0D01*
G01*
G37*
G36*
G01*
X306712500Y-182162500D02*
X307412500Y-182162500D01*
G75*
G02*
X307662500Y-182412500I0J-250000D01*
G01*
X307662500Y-182912500D01*
G75*
G02*
X307412500Y-183162500I-250000J0D01*
G01*
X306712500Y-183162500D01*
G75*
G02*
X306462500Y-182912500I0J250000D01*
G01*
X306462500Y-182412500D01*
G75*
G02*
X306712500Y-182162500I250000J0D01*
G01*
G37*
G04 #@! TD*
G04 #@! TO.C,D16*
G36*
G01*
X325762500Y-182162500D02*
X326462500Y-182162500D01*
G75*
G02*
X326712500Y-182412500I0J-250000D01*
G01*
X326712500Y-182912500D01*
G75*
G02*
X326462500Y-183162500I-250000J0D01*
G01*
X325762500Y-183162500D01*
G75*
G02*
X325512500Y-182912500I0J250000D01*
G01*
X325512500Y-182412500D01*
G75*
G02*
X325762500Y-182162500I250000J0D01*
G01*
G37*
G36*
G01*
X325762500Y-178862500D02*
X326462500Y-178862500D01*
G75*
G02*
X326712500Y-179112500I0J-250000D01*
G01*
X326712500Y-179612500D01*
G75*
G02*
X326462500Y-179862500I-250000J0D01*
G01*
X325762500Y-179862500D01*
G75*
G02*
X325512500Y-179612500I0J250000D01*
G01*
X325512500Y-179112500D01*
G75*
G02*
X325762500Y-178862500I250000J0D01*
G01*
G37*
G04 #@! TD*
G04 #@! TO.C,D17*
G36*
G01*
X344812500Y-178862500D02*
X345512500Y-178862500D01*
G75*
G02*
X345762500Y-179112500I0J-250000D01*
G01*
X345762500Y-179612500D01*
G75*
G02*
X345512500Y-179862500I-250000J0D01*
G01*
X344812500Y-179862500D01*
G75*
G02*
X344562500Y-179612500I0J250000D01*
G01*
X344562500Y-179112500D01*
G75*
G02*
X344812500Y-178862500I250000J0D01*
G01*
G37*
G36*
G01*
X344812500Y-182162500D02*
X345512500Y-182162500D01*
G75*
G02*
X345762500Y-182412500I0J-250000D01*
G01*
X345762500Y-182912500D01*
G75*
G02*
X345512500Y-183162500I-250000J0D01*
G01*
X344812500Y-183162500D01*
G75*
G02*
X344562500Y-182912500I0J250000D01*
G01*
X344562500Y-182412500D01*
G75*
G02*
X344812500Y-182162500I250000J0D01*
G01*
G37*
G04 #@! TD*
G04 #@! TO.C,D18*
G36*
G01*
X363862500Y-182162500D02*
X364562500Y-182162500D01*
G75*
G02*
X364812500Y-182412500I0J-250000D01*
G01*
X364812500Y-182912500D01*
G75*
G02*
X364562500Y-183162500I-250000J0D01*
G01*
X363862500Y-183162500D01*
G75*
G02*
X363612500Y-182912500I0J250000D01*
G01*
X363612500Y-182412500D01*
G75*
G02*
X363862500Y-182162500I250000J0D01*
G01*
G37*
G36*
G01*
X363862500Y-178862500D02*
X364562500Y-178862500D01*
G75*
G02*
X364812500Y-179112500I0J-250000D01*
G01*
X364812500Y-179612500D01*
G75*
G02*
X364562500Y-179862500I-250000J0D01*
G01*
X363862500Y-179862500D01*
G75*
G02*
X363612500Y-179612500I0J250000D01*
G01*
X363612500Y-179112500D01*
G75*
G02*
X363862500Y-178862500I250000J0D01*
G01*
G37*
G04 #@! TD*
G04 #@! TO.C,D19*
G36*
G01*
X382912500Y-178862500D02*
X383612500Y-178862500D01*
G75*
G02*
X383862500Y-179112500I0J-250000D01*
G01*
X383862500Y-179612500D01*
G75*
G02*
X383612500Y-179862500I-250000J0D01*
G01*
X382912500Y-179862500D01*
G75*
G02*
X382662500Y-179612500I0J250000D01*
G01*
X382662500Y-179112500D01*
G75*
G02*
X382912500Y-178862500I250000J0D01*
G01*
G37*
G36*
G01*
X382912500Y-182162500D02*
X383612500Y-182162500D01*
G75*
G02*
X383862500Y-182412500I0J-250000D01*
G01*
X383862500Y-182912500D01*
G75*
G02*
X383612500Y-183162500I-250000J0D01*
G01*
X382912500Y-183162500D01*
G75*
G02*
X382662500Y-182912500I0J250000D01*
G01*
X382662500Y-182412500D01*
G75*
G02*
X382912500Y-182162500I250000J0D01*
G01*
G37*
G04 #@! TD*
G04 #@! TO.C,D20*
G36*
G01*
X401962500Y-178862500D02*
X402662500Y-178862500D01*
G75*
G02*
X402912500Y-179112500I0J-250000D01*
G01*
X402912500Y-179612500D01*
G75*
G02*
X402662500Y-179862500I-250000J0D01*
G01*
X401962500Y-179862500D01*
G75*
G02*
X401712500Y-179612500I0J250000D01*
G01*
X401712500Y-179112500D01*
G75*
G02*
X401962500Y-178862500I250000J0D01*
G01*
G37*
G36*
G01*
X401962500Y-182162500D02*
X402662500Y-182162500D01*
G75*
G02*
X402912500Y-182412500I0J-250000D01*
G01*
X402912500Y-182912500D01*
G75*
G02*
X402662500Y-183162500I-250000J0D01*
G01*
X401962500Y-183162500D01*
G75*
G02*
X401712500Y-182912500I0J250000D01*
G01*
X401712500Y-182412500D01*
G75*
G02*
X401962500Y-182162500I250000J0D01*
G01*
G37*
G04 #@! TD*
G04 #@! TO.C,D21*
G36*
G01*
X430537500Y-182162500D02*
X431237500Y-182162500D01*
G75*
G02*
X431487500Y-182412500I0J-250000D01*
G01*
X431487500Y-182912500D01*
G75*
G02*
X431237500Y-183162500I-250000J0D01*
G01*
X430537500Y-183162500D01*
G75*
G02*
X430287500Y-182912500I0J250000D01*
G01*
X430287500Y-182412500D01*
G75*
G02*
X430537500Y-182162500I250000J0D01*
G01*
G37*
G36*
G01*
X430537500Y-178862500D02*
X431237500Y-178862500D01*
G75*
G02*
X431487500Y-179112500I0J-250000D01*
G01*
X431487500Y-179612500D01*
G75*
G02*
X431237500Y-179862500I-250000J0D01*
G01*
X430537500Y-179862500D01*
G75*
G02*
X430287500Y-179612500I0J250000D01*
G01*
X430287500Y-179112500D01*
G75*
G02*
X430537500Y-178862500I250000J0D01*
G01*
G37*
G04 #@! TD*
G04 #@! TO.C,D25*
G36*
G01*
X168600000Y-201212500D02*
X169300000Y-201212500D01*
G75*
G02*
X169550000Y-201462500I0J-250000D01*
G01*
X169550000Y-201962500D01*
G75*
G02*
X169300000Y-202212500I-250000J0D01*
G01*
X168600000Y-202212500D01*
G75*
G02*
X168350000Y-201962500I0J250000D01*
G01*
X168350000Y-201462500D01*
G75*
G02*
X168600000Y-201212500I250000J0D01*
G01*
G37*
G36*
G01*
X168600000Y-197912500D02*
X169300000Y-197912500D01*
G75*
G02*
X169550000Y-198162500I0J-250000D01*
G01*
X169550000Y-198662500D01*
G75*
G02*
X169300000Y-198912500I-250000J0D01*
G01*
X168600000Y-198912500D01*
G75*
G02*
X168350000Y-198662500I0J250000D01*
G01*
X168350000Y-198162500D01*
G75*
G02*
X168600000Y-197912500I250000J0D01*
G01*
G37*
G04 #@! TD*
G04 #@! TO.C,D26*
G36*
G01*
X192412500Y-197912500D02*
X193112500Y-197912500D01*
G75*
G02*
X193362500Y-198162500I0J-250000D01*
G01*
X193362500Y-198662500D01*
G75*
G02*
X193112500Y-198912500I-250000J0D01*
G01*
X192412500Y-198912500D01*
G75*
G02*
X192162500Y-198662500I0J250000D01*
G01*
X192162500Y-198162500D01*
G75*
G02*
X192412500Y-197912500I250000J0D01*
G01*
G37*
G36*
G01*
X192412500Y-201212500D02*
X193112500Y-201212500D01*
G75*
G02*
X193362500Y-201462500I0J-250000D01*
G01*
X193362500Y-201962500D01*
G75*
G02*
X193112500Y-202212500I-250000J0D01*
G01*
X192412500Y-202212500D01*
G75*
G02*
X192162500Y-201962500I0J250000D01*
G01*
X192162500Y-201462500D01*
G75*
G02*
X192412500Y-201212500I250000J0D01*
G01*
G37*
G04 #@! TD*
G04 #@! TO.C,D27*
G36*
G01*
X211462500Y-197912500D02*
X212162500Y-197912500D01*
G75*
G02*
X212412500Y-198162500I0J-250000D01*
G01*
X212412500Y-198662500D01*
G75*
G02*
X212162500Y-198912500I-250000J0D01*
G01*
X211462500Y-198912500D01*
G75*
G02*
X211212500Y-198662500I0J250000D01*
G01*
X211212500Y-198162500D01*
G75*
G02*
X211462500Y-197912500I250000J0D01*
G01*
G37*
G36*
G01*
X211462500Y-201212500D02*
X212162500Y-201212500D01*
G75*
G02*
X212412500Y-201462500I0J-250000D01*
G01*
X212412500Y-201962500D01*
G75*
G02*
X212162500Y-202212500I-250000J0D01*
G01*
X211462500Y-202212500D01*
G75*
G02*
X211212500Y-201962500I0J250000D01*
G01*
X211212500Y-201462500D01*
G75*
G02*
X211462500Y-201212500I250000J0D01*
G01*
G37*
G04 #@! TD*
G04 #@! TO.C,D28*
G36*
G01*
X230512500Y-197912500D02*
X231212500Y-197912500D01*
G75*
G02*
X231462500Y-198162500I0J-250000D01*
G01*
X231462500Y-198662500D01*
G75*
G02*
X231212500Y-198912500I-250000J0D01*
G01*
X230512500Y-198912500D01*
G75*
G02*
X230262500Y-198662500I0J250000D01*
G01*
X230262500Y-198162500D01*
G75*
G02*
X230512500Y-197912500I250000J0D01*
G01*
G37*
G36*
G01*
X230512500Y-201212500D02*
X231212500Y-201212500D01*
G75*
G02*
X231462500Y-201462500I0J-250000D01*
G01*
X231462500Y-201962500D01*
G75*
G02*
X231212500Y-202212500I-250000J0D01*
G01*
X230512500Y-202212500D01*
G75*
G02*
X230262500Y-201962500I0J250000D01*
G01*
X230262500Y-201462500D01*
G75*
G02*
X230512500Y-201212500I250000J0D01*
G01*
G37*
G04 #@! TD*
G04 #@! TO.C,D29*
G36*
G01*
X249562500Y-201212500D02*
X250262500Y-201212500D01*
G75*
G02*
X250512500Y-201462500I0J-250000D01*
G01*
X250512500Y-201962500D01*
G75*
G02*
X250262500Y-202212500I-250000J0D01*
G01*
X249562500Y-202212500D01*
G75*
G02*
X249312500Y-201962500I0J250000D01*
G01*
X249312500Y-201462500D01*
G75*
G02*
X249562500Y-201212500I250000J0D01*
G01*
G37*
G36*
G01*
X249562500Y-197912500D02*
X250262500Y-197912500D01*
G75*
G02*
X250512500Y-198162500I0J-250000D01*
G01*
X250512500Y-198662500D01*
G75*
G02*
X250262500Y-198912500I-250000J0D01*
G01*
X249562500Y-198912500D01*
G75*
G02*
X249312500Y-198662500I0J250000D01*
G01*
X249312500Y-198162500D01*
G75*
G02*
X249562500Y-197912500I250000J0D01*
G01*
G37*
G04 #@! TD*
G04 #@! TO.C,D30*
G36*
G01*
X268612500Y-201212500D02*
X269312500Y-201212500D01*
G75*
G02*
X269562500Y-201462500I0J-250000D01*
G01*
X269562500Y-201962500D01*
G75*
G02*
X269312500Y-202212500I-250000J0D01*
G01*
X268612500Y-202212500D01*
G75*
G02*
X268362500Y-201962500I0J250000D01*
G01*
X268362500Y-201462500D01*
G75*
G02*
X268612500Y-201212500I250000J0D01*
G01*
G37*
G36*
G01*
X268612500Y-197912500D02*
X269312500Y-197912500D01*
G75*
G02*
X269562500Y-198162500I0J-250000D01*
G01*
X269562500Y-198662500D01*
G75*
G02*
X269312500Y-198912500I-250000J0D01*
G01*
X268612500Y-198912500D01*
G75*
G02*
X268362500Y-198662500I0J250000D01*
G01*
X268362500Y-198162500D01*
G75*
G02*
X268612500Y-197912500I250000J0D01*
G01*
G37*
G04 #@! TD*
G04 #@! TO.C,D31*
G36*
G01*
X287662500Y-197912500D02*
X288362500Y-197912500D01*
G75*
G02*
X288612500Y-198162500I0J-250000D01*
G01*
X288612500Y-198662500D01*
G75*
G02*
X288362500Y-198912500I-250000J0D01*
G01*
X287662500Y-198912500D01*
G75*
G02*
X287412500Y-198662500I0J250000D01*
G01*
X287412500Y-198162500D01*
G75*
G02*
X287662500Y-197912500I250000J0D01*
G01*
G37*
G36*
G01*
X287662500Y-201212500D02*
X288362500Y-201212500D01*
G75*
G02*
X288612500Y-201462500I0J-250000D01*
G01*
X288612500Y-201962500D01*
G75*
G02*
X288362500Y-202212500I-250000J0D01*
G01*
X287662500Y-202212500D01*
G75*
G02*
X287412500Y-201962500I0J250000D01*
G01*
X287412500Y-201462500D01*
G75*
G02*
X287662500Y-201212500I250000J0D01*
G01*
G37*
G04 #@! TD*
G04 #@! TO.C,D32*
G36*
G01*
X306712500Y-201212500D02*
X307412500Y-201212500D01*
G75*
G02*
X307662500Y-201462500I0J-250000D01*
G01*
X307662500Y-201962500D01*
G75*
G02*
X307412500Y-202212500I-250000J0D01*
G01*
X306712500Y-202212500D01*
G75*
G02*
X306462500Y-201962500I0J250000D01*
G01*
X306462500Y-201462500D01*
G75*
G02*
X306712500Y-201212500I250000J0D01*
G01*
G37*
G36*
G01*
X306712500Y-197912500D02*
X307412500Y-197912500D01*
G75*
G02*
X307662500Y-198162500I0J-250000D01*
G01*
X307662500Y-198662500D01*
G75*
G02*
X307412500Y-198912500I-250000J0D01*
G01*
X306712500Y-198912500D01*
G75*
G02*
X306462500Y-198662500I0J250000D01*
G01*
X306462500Y-198162500D01*
G75*
G02*
X306712500Y-197912500I250000J0D01*
G01*
G37*
G04 #@! TD*
G04 #@! TO.C,D33*
G36*
G01*
X325762500Y-201212500D02*
X326462500Y-201212500D01*
G75*
G02*
X326712500Y-201462500I0J-250000D01*
G01*
X326712500Y-201962500D01*
G75*
G02*
X326462500Y-202212500I-250000J0D01*
G01*
X325762500Y-202212500D01*
G75*
G02*
X325512500Y-201962500I0J250000D01*
G01*
X325512500Y-201462500D01*
G75*
G02*
X325762500Y-201212500I250000J0D01*
G01*
G37*
G36*
G01*
X325762500Y-197912500D02*
X326462500Y-197912500D01*
G75*
G02*
X326712500Y-198162500I0J-250000D01*
G01*
X326712500Y-198662500D01*
G75*
G02*
X326462500Y-198912500I-250000J0D01*
G01*
X325762500Y-198912500D01*
G75*
G02*
X325512500Y-198662500I0J250000D01*
G01*
X325512500Y-198162500D01*
G75*
G02*
X325762500Y-197912500I250000J0D01*
G01*
G37*
G04 #@! TD*
G04 #@! TO.C,D34*
G36*
G01*
X344812500Y-197912500D02*
X345512500Y-197912500D01*
G75*
G02*
X345762500Y-198162500I0J-250000D01*
G01*
X345762500Y-198662500D01*
G75*
G02*
X345512500Y-198912500I-250000J0D01*
G01*
X344812500Y-198912500D01*
G75*
G02*
X344562500Y-198662500I0J250000D01*
G01*
X344562500Y-198162500D01*
G75*
G02*
X344812500Y-197912500I250000J0D01*
G01*
G37*
G36*
G01*
X344812500Y-201212500D02*
X345512500Y-201212500D01*
G75*
G02*
X345762500Y-201462500I0J-250000D01*
G01*
X345762500Y-201962500D01*
G75*
G02*
X345512500Y-202212500I-250000J0D01*
G01*
X344812500Y-202212500D01*
G75*
G02*
X344562500Y-201962500I0J250000D01*
G01*
X344562500Y-201462500D01*
G75*
G02*
X344812500Y-201212500I250000J0D01*
G01*
G37*
G04 #@! TD*
G04 #@! TO.C,D35*
G36*
G01*
X363862500Y-201212500D02*
X364562500Y-201212500D01*
G75*
G02*
X364812500Y-201462500I0J-250000D01*
G01*
X364812500Y-201962500D01*
G75*
G02*
X364562500Y-202212500I-250000J0D01*
G01*
X363862500Y-202212500D01*
G75*
G02*
X363612500Y-201962500I0J250000D01*
G01*
X363612500Y-201462500D01*
G75*
G02*
X363862500Y-201212500I250000J0D01*
G01*
G37*
G36*
G01*
X363862500Y-197912500D02*
X364562500Y-197912500D01*
G75*
G02*
X364812500Y-198162500I0J-250000D01*
G01*
X364812500Y-198662500D01*
G75*
G02*
X364562500Y-198912500I-250000J0D01*
G01*
X363862500Y-198912500D01*
G75*
G02*
X363612500Y-198662500I0J250000D01*
G01*
X363612500Y-198162500D01*
G75*
G02*
X363862500Y-197912500I250000J0D01*
G01*
G37*
G04 #@! TD*
G04 #@! TO.C,D36*
G36*
G01*
X382912500Y-201212500D02*
X383612500Y-201212500D01*
G75*
G02*
X383862500Y-201462500I0J-250000D01*
G01*
X383862500Y-201962500D01*
G75*
G02*
X383612500Y-202212500I-250000J0D01*
G01*
X382912500Y-202212500D01*
G75*
G02*
X382662500Y-201962500I0J250000D01*
G01*
X382662500Y-201462500D01*
G75*
G02*
X382912500Y-201212500I250000J0D01*
G01*
G37*
G36*
G01*
X382912500Y-197912500D02*
X383612500Y-197912500D01*
G75*
G02*
X383862500Y-198162500I0J-250000D01*
G01*
X383862500Y-198662500D01*
G75*
G02*
X383612500Y-198912500I-250000J0D01*
G01*
X382912500Y-198912500D01*
G75*
G02*
X382662500Y-198662500I0J250000D01*
G01*
X382662500Y-198162500D01*
G75*
G02*
X382912500Y-197912500I250000J0D01*
G01*
G37*
G04 #@! TD*
G04 #@! TO.C,D37*
G36*
G01*
X401962500Y-197912500D02*
X402662500Y-197912500D01*
G75*
G02*
X402912500Y-198162500I0J-250000D01*
G01*
X402912500Y-198662500D01*
G75*
G02*
X402662500Y-198912500I-250000J0D01*
G01*
X401962500Y-198912500D01*
G75*
G02*
X401712500Y-198662500I0J250000D01*
G01*
X401712500Y-198162500D01*
G75*
G02*
X401962500Y-197912500I250000J0D01*
G01*
G37*
G36*
G01*
X401962500Y-201212500D02*
X402662500Y-201212500D01*
G75*
G02*
X402912500Y-201462500I0J-250000D01*
G01*
X402912500Y-201962500D01*
G75*
G02*
X402662500Y-202212500I-250000J0D01*
G01*
X401962500Y-202212500D01*
G75*
G02*
X401712500Y-201962500I0J250000D01*
G01*
X401712500Y-201462500D01*
G75*
G02*
X401962500Y-201212500I250000J0D01*
G01*
G37*
G04 #@! TD*
G04 #@! TO.C,D38*
G36*
G01*
X425775000Y-201212500D02*
X426475000Y-201212500D01*
G75*
G02*
X426725000Y-201462500I0J-250000D01*
G01*
X426725000Y-201962500D01*
G75*
G02*
X426475000Y-202212500I-250000J0D01*
G01*
X425775000Y-202212500D01*
G75*
G02*
X425525000Y-201962500I0J250000D01*
G01*
X425525000Y-201462500D01*
G75*
G02*
X425775000Y-201212500I250000J0D01*
G01*
G37*
G36*
G01*
X425775000Y-197912500D02*
X426475000Y-197912500D01*
G75*
G02*
X426725000Y-198162500I0J-250000D01*
G01*
X426725000Y-198662500D01*
G75*
G02*
X426475000Y-198912500I-250000J0D01*
G01*
X425775000Y-198912500D01*
G75*
G02*
X425525000Y-198662500I0J250000D01*
G01*
X425525000Y-198162500D01*
G75*
G02*
X425775000Y-197912500I250000J0D01*
G01*
G37*
G04 #@! TD*
G04 #@! TO.C,D42*
G36*
G01*
X166218750Y-220262500D02*
X166918750Y-220262500D01*
G75*
G02*
X167168750Y-220512500I0J-250000D01*
G01*
X167168750Y-221012500D01*
G75*
G02*
X166918750Y-221262500I-250000J0D01*
G01*
X166218750Y-221262500D01*
G75*
G02*
X165968750Y-221012500I0J250000D01*
G01*
X165968750Y-220512500D01*
G75*
G02*
X166218750Y-220262500I250000J0D01*
G01*
G37*
G36*
G01*
X166218750Y-216962500D02*
X166918750Y-216962500D01*
G75*
G02*
X167168750Y-217212500I0J-250000D01*
G01*
X167168750Y-217712500D01*
G75*
G02*
X166918750Y-217962500I-250000J0D01*
G01*
X166218750Y-217962500D01*
G75*
G02*
X165968750Y-217712500I0J250000D01*
G01*
X165968750Y-217212500D01*
G75*
G02*
X166218750Y-216962500I250000J0D01*
G01*
G37*
G04 #@! TD*
G04 #@! TO.C,D43*
G36*
G01*
X192412500Y-216962500D02*
X193112500Y-216962500D01*
G75*
G02*
X193362500Y-217212500I0J-250000D01*
G01*
X193362500Y-217712500D01*
G75*
G02*
X193112500Y-217962500I-250000J0D01*
G01*
X192412500Y-217962500D01*
G75*
G02*
X192162500Y-217712500I0J250000D01*
G01*
X192162500Y-217212500D01*
G75*
G02*
X192412500Y-216962500I250000J0D01*
G01*
G37*
G36*
G01*
X192412500Y-220262500D02*
X193112500Y-220262500D01*
G75*
G02*
X193362500Y-220512500I0J-250000D01*
G01*
X193362500Y-221012500D01*
G75*
G02*
X193112500Y-221262500I-250000J0D01*
G01*
X192412500Y-221262500D01*
G75*
G02*
X192162500Y-221012500I0J250000D01*
G01*
X192162500Y-220512500D01*
G75*
G02*
X192412500Y-220262500I250000J0D01*
G01*
G37*
G04 #@! TD*
G04 #@! TO.C,D44*
G36*
G01*
X211462500Y-220262500D02*
X212162500Y-220262500D01*
G75*
G02*
X212412500Y-220512500I0J-250000D01*
G01*
X212412500Y-221012500D01*
G75*
G02*
X212162500Y-221262500I-250000J0D01*
G01*
X211462500Y-221262500D01*
G75*
G02*
X211212500Y-221012500I0J250000D01*
G01*
X211212500Y-220512500D01*
G75*
G02*
X211462500Y-220262500I250000J0D01*
G01*
G37*
G36*
G01*
X211462500Y-216962500D02*
X212162500Y-216962500D01*
G75*
G02*
X212412500Y-217212500I0J-250000D01*
G01*
X212412500Y-217712500D01*
G75*
G02*
X212162500Y-217962500I-250000J0D01*
G01*
X211462500Y-217962500D01*
G75*
G02*
X211212500Y-217712500I0J250000D01*
G01*
X211212500Y-217212500D01*
G75*
G02*
X211462500Y-216962500I250000J0D01*
G01*
G37*
G04 #@! TD*
G04 #@! TO.C,D45*
G36*
G01*
X230512500Y-216962500D02*
X231212500Y-216962500D01*
G75*
G02*
X231462500Y-217212500I0J-250000D01*
G01*
X231462500Y-217712500D01*
G75*
G02*
X231212500Y-217962500I-250000J0D01*
G01*
X230512500Y-217962500D01*
G75*
G02*
X230262500Y-217712500I0J250000D01*
G01*
X230262500Y-217212500D01*
G75*
G02*
X230512500Y-216962500I250000J0D01*
G01*
G37*
G36*
G01*
X230512500Y-220262500D02*
X231212500Y-220262500D01*
G75*
G02*
X231462500Y-220512500I0J-250000D01*
G01*
X231462500Y-221012500D01*
G75*
G02*
X231212500Y-221262500I-250000J0D01*
G01*
X230512500Y-221262500D01*
G75*
G02*
X230262500Y-221012500I0J250000D01*
G01*
X230262500Y-220512500D01*
G75*
G02*
X230512500Y-220262500I250000J0D01*
G01*
G37*
G04 #@! TD*
G04 #@! TO.C,D46*
G36*
G01*
X249562500Y-220262500D02*
X250262500Y-220262500D01*
G75*
G02*
X250512500Y-220512500I0J-250000D01*
G01*
X250512500Y-221012500D01*
G75*
G02*
X250262500Y-221262500I-250000J0D01*
G01*
X249562500Y-221262500D01*
G75*
G02*
X249312500Y-221012500I0J250000D01*
G01*
X249312500Y-220512500D01*
G75*
G02*
X249562500Y-220262500I250000J0D01*
G01*
G37*
G36*
G01*
X249562500Y-216962500D02*
X250262500Y-216962500D01*
G75*
G02*
X250512500Y-217212500I0J-250000D01*
G01*
X250512500Y-217712500D01*
G75*
G02*
X250262500Y-217962500I-250000J0D01*
G01*
X249562500Y-217962500D01*
G75*
G02*
X249312500Y-217712500I0J250000D01*
G01*
X249312500Y-217212500D01*
G75*
G02*
X249562500Y-216962500I250000J0D01*
G01*
G37*
G04 #@! TD*
G04 #@! TO.C,D47*
G36*
G01*
X268612500Y-216962500D02*
X269312500Y-216962500D01*
G75*
G02*
X269562500Y-217212500I0J-250000D01*
G01*
X269562500Y-217712500D01*
G75*
G02*
X269312500Y-217962500I-250000J0D01*
G01*
X268612500Y-217962500D01*
G75*
G02*
X268362500Y-217712500I0J250000D01*
G01*
X268362500Y-217212500D01*
G75*
G02*
X268612500Y-216962500I250000J0D01*
G01*
G37*
G36*
G01*
X268612500Y-220262500D02*
X269312500Y-220262500D01*
G75*
G02*
X269562500Y-220512500I0J-250000D01*
G01*
X269562500Y-221012500D01*
G75*
G02*
X269312500Y-221262500I-250000J0D01*
G01*
X268612500Y-221262500D01*
G75*
G02*
X268362500Y-221012500I0J250000D01*
G01*
X268362500Y-220512500D01*
G75*
G02*
X268612500Y-220262500I250000J0D01*
G01*
G37*
G04 #@! TD*
G04 #@! TO.C,D48*
G36*
G01*
X287662500Y-220262500D02*
X288362500Y-220262500D01*
G75*
G02*
X288612500Y-220512500I0J-250000D01*
G01*
X288612500Y-221012500D01*
G75*
G02*
X288362500Y-221262500I-250000J0D01*
G01*
X287662500Y-221262500D01*
G75*
G02*
X287412500Y-221012500I0J250000D01*
G01*
X287412500Y-220512500D01*
G75*
G02*
X287662500Y-220262500I250000J0D01*
G01*
G37*
G36*
G01*
X287662500Y-216962500D02*
X288362500Y-216962500D01*
G75*
G02*
X288612500Y-217212500I0J-250000D01*
G01*
X288612500Y-217712500D01*
G75*
G02*
X288362500Y-217962500I-250000J0D01*
G01*
X287662500Y-217962500D01*
G75*
G02*
X287412500Y-217712500I0J250000D01*
G01*
X287412500Y-217212500D01*
G75*
G02*
X287662500Y-216962500I250000J0D01*
G01*
G37*
G04 #@! TD*
G04 #@! TO.C,D49*
G36*
G01*
X306712500Y-216962500D02*
X307412500Y-216962500D01*
G75*
G02*
X307662500Y-217212500I0J-250000D01*
G01*
X307662500Y-217712500D01*
G75*
G02*
X307412500Y-217962500I-250000J0D01*
G01*
X306712500Y-217962500D01*
G75*
G02*
X306462500Y-217712500I0J250000D01*
G01*
X306462500Y-217212500D01*
G75*
G02*
X306712500Y-216962500I250000J0D01*
G01*
G37*
G36*
G01*
X306712500Y-220262500D02*
X307412500Y-220262500D01*
G75*
G02*
X307662500Y-220512500I0J-250000D01*
G01*
X307662500Y-221012500D01*
G75*
G02*
X307412500Y-221262500I-250000J0D01*
G01*
X306712500Y-221262500D01*
G75*
G02*
X306462500Y-221012500I0J250000D01*
G01*
X306462500Y-220512500D01*
G75*
G02*
X306712500Y-220262500I250000J0D01*
G01*
G37*
G04 #@! TD*
G04 #@! TO.C,D50*
G36*
G01*
X325762500Y-220262500D02*
X326462500Y-220262500D01*
G75*
G02*
X326712500Y-220512500I0J-250000D01*
G01*
X326712500Y-221012500D01*
G75*
G02*
X326462500Y-221262500I-250000J0D01*
G01*
X325762500Y-221262500D01*
G75*
G02*
X325512500Y-221012500I0J250000D01*
G01*
X325512500Y-220512500D01*
G75*
G02*
X325762500Y-220262500I250000J0D01*
G01*
G37*
G36*
G01*
X325762500Y-216962500D02*
X326462500Y-216962500D01*
G75*
G02*
X326712500Y-217212500I0J-250000D01*
G01*
X326712500Y-217712500D01*
G75*
G02*
X326462500Y-217962500I-250000J0D01*
G01*
X325762500Y-217962500D01*
G75*
G02*
X325512500Y-217712500I0J250000D01*
G01*
X325512500Y-217212500D01*
G75*
G02*
X325762500Y-216962500I250000J0D01*
G01*
G37*
G04 #@! TD*
G04 #@! TO.C,D51*
G36*
G01*
X344812500Y-216962500D02*
X345512500Y-216962500D01*
G75*
G02*
X345762500Y-217212500I0J-250000D01*
G01*
X345762500Y-217712500D01*
G75*
G02*
X345512500Y-217962500I-250000J0D01*
G01*
X344812500Y-217962500D01*
G75*
G02*
X344562500Y-217712500I0J250000D01*
G01*
X344562500Y-217212500D01*
G75*
G02*
X344812500Y-216962500I250000J0D01*
G01*
G37*
G36*
G01*
X344812500Y-220262500D02*
X345512500Y-220262500D01*
G75*
G02*
X345762500Y-220512500I0J-250000D01*
G01*
X345762500Y-221012500D01*
G75*
G02*
X345512500Y-221262500I-250000J0D01*
G01*
X344812500Y-221262500D01*
G75*
G02*
X344562500Y-221012500I0J250000D01*
G01*
X344562500Y-220512500D01*
G75*
G02*
X344812500Y-220262500I250000J0D01*
G01*
G37*
G04 #@! TD*
G04 #@! TO.C,D52*
G36*
G01*
X363862500Y-216962500D02*
X364562500Y-216962500D01*
G75*
G02*
X364812500Y-217212500I0J-250000D01*
G01*
X364812500Y-217712500D01*
G75*
G02*
X364562500Y-217962500I-250000J0D01*
G01*
X363862500Y-217962500D01*
G75*
G02*
X363612500Y-217712500I0J250000D01*
G01*
X363612500Y-217212500D01*
G75*
G02*
X363862500Y-216962500I250000J0D01*
G01*
G37*
G36*
G01*
X363862500Y-220262500D02*
X364562500Y-220262500D01*
G75*
G02*
X364812500Y-220512500I0J-250000D01*
G01*
X364812500Y-221012500D01*
G75*
G02*
X364562500Y-221262500I-250000J0D01*
G01*
X363862500Y-221262500D01*
G75*
G02*
X363612500Y-221012500I0J250000D01*
G01*
X363612500Y-220512500D01*
G75*
G02*
X363862500Y-220262500I250000J0D01*
G01*
G37*
G04 #@! TD*
G04 #@! TO.C,D53*
G36*
G01*
X382912500Y-216962500D02*
X383612500Y-216962500D01*
G75*
G02*
X383862500Y-217212500I0J-250000D01*
G01*
X383862500Y-217712500D01*
G75*
G02*
X383612500Y-217962500I-250000J0D01*
G01*
X382912500Y-217962500D01*
G75*
G02*
X382662500Y-217712500I0J250000D01*
G01*
X382662500Y-217212500D01*
G75*
G02*
X382912500Y-216962500I250000J0D01*
G01*
G37*
G36*
G01*
X382912500Y-220262500D02*
X383612500Y-220262500D01*
G75*
G02*
X383862500Y-220512500I0J-250000D01*
G01*
X383862500Y-221012500D01*
G75*
G02*
X383612500Y-221262500I-250000J0D01*
G01*
X382912500Y-221262500D01*
G75*
G02*
X382662500Y-221012500I0J250000D01*
G01*
X382662500Y-220512500D01*
G75*
G02*
X382912500Y-220262500I250000J0D01*
G01*
G37*
G04 #@! TD*
G04 #@! TO.C,D54*
G36*
G01*
X413868750Y-216962500D02*
X414568750Y-216962500D01*
G75*
G02*
X414818750Y-217212500I0J-250000D01*
G01*
X414818750Y-217712500D01*
G75*
G02*
X414568750Y-217962500I-250000J0D01*
G01*
X413868750Y-217962500D01*
G75*
G02*
X413618750Y-217712500I0J250000D01*
G01*
X413618750Y-217212500D01*
G75*
G02*
X413868750Y-216962500I250000J0D01*
G01*
G37*
G36*
G01*
X413868750Y-220262500D02*
X414568750Y-220262500D01*
G75*
G02*
X414818750Y-220512500I0J-250000D01*
G01*
X414818750Y-221012500D01*
G75*
G02*
X414568750Y-221262500I-250000J0D01*
G01*
X413868750Y-221262500D01*
G75*
G02*
X413618750Y-221012500I0J250000D01*
G01*
X413618750Y-220512500D01*
G75*
G02*
X413868750Y-220262500I250000J0D01*
G01*
G37*
G04 #@! TD*
G04 #@! TO.C,D56*
G36*
G01*
X468637500Y-239312500D02*
X469337500Y-239312500D01*
G75*
G02*
X469587500Y-239562500I0J-250000D01*
G01*
X469587500Y-240062500D01*
G75*
G02*
X469337500Y-240312500I-250000J0D01*
G01*
X468637500Y-240312500D01*
G75*
G02*
X468387500Y-240062500I0J250000D01*
G01*
X468387500Y-239562500D01*
G75*
G02*
X468637500Y-239312500I250000J0D01*
G01*
G37*
G36*
G01*
X468637500Y-236012500D02*
X469337500Y-236012500D01*
G75*
G02*
X469587500Y-236262500I0J-250000D01*
G01*
X469587500Y-236762500D01*
G75*
G02*
X469337500Y-237012500I-250000J0D01*
G01*
X468637500Y-237012500D01*
G75*
G02*
X468387500Y-236762500I0J250000D01*
G01*
X468387500Y-236262500D01*
G75*
G02*
X468637500Y-236012500I250000J0D01*
G01*
G37*
G04 #@! TD*
G04 #@! TO.C,D58*
G36*
G01*
X161456250Y-236012500D02*
X162156250Y-236012500D01*
G75*
G02*
X162406250Y-236262500I0J-250000D01*
G01*
X162406250Y-236762500D01*
G75*
G02*
X162156250Y-237012500I-250000J0D01*
G01*
X161456250Y-237012500D01*
G75*
G02*
X161206250Y-236762500I0J250000D01*
G01*
X161206250Y-236262500D01*
G75*
G02*
X161456250Y-236012500I250000J0D01*
G01*
G37*
G36*
G01*
X161456250Y-239312500D02*
X162156250Y-239312500D01*
G75*
G02*
X162406250Y-239562500I0J-250000D01*
G01*
X162406250Y-240062500D01*
G75*
G02*
X162156250Y-240312500I-250000J0D01*
G01*
X161456250Y-240312500D01*
G75*
G02*
X161206250Y-240062500I0J250000D01*
G01*
X161206250Y-239562500D01*
G75*
G02*
X161456250Y-239312500I250000J0D01*
G01*
G37*
G04 #@! TD*
G04 #@! TO.C,D59*
G36*
G01*
X192412500Y-236012500D02*
X193112500Y-236012500D01*
G75*
G02*
X193362500Y-236262500I0J-250000D01*
G01*
X193362500Y-236762500D01*
G75*
G02*
X193112500Y-237012500I-250000J0D01*
G01*
X192412500Y-237012500D01*
G75*
G02*
X192162500Y-236762500I0J250000D01*
G01*
X192162500Y-236262500D01*
G75*
G02*
X192412500Y-236012500I250000J0D01*
G01*
G37*
G36*
G01*
X192412500Y-239312500D02*
X193112500Y-239312500D01*
G75*
G02*
X193362500Y-239562500I0J-250000D01*
G01*
X193362500Y-240062500D01*
G75*
G02*
X193112500Y-240312500I-250000J0D01*
G01*
X192412500Y-240312500D01*
G75*
G02*
X192162500Y-240062500I0J250000D01*
G01*
X192162500Y-239562500D01*
G75*
G02*
X192412500Y-239312500I250000J0D01*
G01*
G37*
G04 #@! TD*
G04 #@! TO.C,D60*
G36*
G01*
X211462500Y-236012500D02*
X212162500Y-236012500D01*
G75*
G02*
X212412500Y-236262500I0J-250000D01*
G01*
X212412500Y-236762500D01*
G75*
G02*
X212162500Y-237012500I-250000J0D01*
G01*
X211462500Y-237012500D01*
G75*
G02*
X211212500Y-236762500I0J250000D01*
G01*
X211212500Y-236262500D01*
G75*
G02*
X211462500Y-236012500I250000J0D01*
G01*
G37*
G36*
G01*
X211462500Y-239312500D02*
X212162500Y-239312500D01*
G75*
G02*
X212412500Y-239562500I0J-250000D01*
G01*
X212412500Y-240062500D01*
G75*
G02*
X212162500Y-240312500I-250000J0D01*
G01*
X211462500Y-240312500D01*
G75*
G02*
X211212500Y-240062500I0J250000D01*
G01*
X211212500Y-239562500D01*
G75*
G02*
X211462500Y-239312500I250000J0D01*
G01*
G37*
G04 #@! TD*
G04 #@! TO.C,D61*
G36*
G01*
X230512500Y-239312500D02*
X231212500Y-239312500D01*
G75*
G02*
X231462500Y-239562500I0J-250000D01*
G01*
X231462500Y-240062500D01*
G75*
G02*
X231212500Y-240312500I-250000J0D01*
G01*
X230512500Y-240312500D01*
G75*
G02*
X230262500Y-240062500I0J250000D01*
G01*
X230262500Y-239562500D01*
G75*
G02*
X230512500Y-239312500I250000J0D01*
G01*
G37*
G36*
G01*
X230512500Y-236012500D02*
X231212500Y-236012500D01*
G75*
G02*
X231462500Y-236262500I0J-250000D01*
G01*
X231462500Y-236762500D01*
G75*
G02*
X231212500Y-237012500I-250000J0D01*
G01*
X230512500Y-237012500D01*
G75*
G02*
X230262500Y-236762500I0J250000D01*
G01*
X230262500Y-236262500D01*
G75*
G02*
X230512500Y-236012500I250000J0D01*
G01*
G37*
G04 #@! TD*
G04 #@! TO.C,D62*
G36*
G01*
X249562500Y-239312500D02*
X250262500Y-239312500D01*
G75*
G02*
X250512500Y-239562500I0J-250000D01*
G01*
X250512500Y-240062500D01*
G75*
G02*
X250262500Y-240312500I-250000J0D01*
G01*
X249562500Y-240312500D01*
G75*
G02*
X249312500Y-240062500I0J250000D01*
G01*
X249312500Y-239562500D01*
G75*
G02*
X249562500Y-239312500I250000J0D01*
G01*
G37*
G36*
G01*
X249562500Y-236012500D02*
X250262500Y-236012500D01*
G75*
G02*
X250512500Y-236262500I0J-250000D01*
G01*
X250512500Y-236762500D01*
G75*
G02*
X250262500Y-237012500I-250000J0D01*
G01*
X249562500Y-237012500D01*
G75*
G02*
X249312500Y-236762500I0J250000D01*
G01*
X249312500Y-236262500D01*
G75*
G02*
X249562500Y-236012500I250000J0D01*
G01*
G37*
G04 #@! TD*
G04 #@! TO.C,D63*
G36*
G01*
X268612500Y-236012500D02*
X269312500Y-236012500D01*
G75*
G02*
X269562500Y-236262500I0J-250000D01*
G01*
X269562500Y-236762500D01*
G75*
G02*
X269312500Y-237012500I-250000J0D01*
G01*
X268612500Y-237012500D01*
G75*
G02*
X268362500Y-236762500I0J250000D01*
G01*
X268362500Y-236262500D01*
G75*
G02*
X268612500Y-236012500I250000J0D01*
G01*
G37*
G36*
G01*
X268612500Y-239312500D02*
X269312500Y-239312500D01*
G75*
G02*
X269562500Y-239562500I0J-250000D01*
G01*
X269562500Y-240062500D01*
G75*
G02*
X269312500Y-240312500I-250000J0D01*
G01*
X268612500Y-240312500D01*
G75*
G02*
X268362500Y-240062500I0J250000D01*
G01*
X268362500Y-239562500D01*
G75*
G02*
X268612500Y-239312500I250000J0D01*
G01*
G37*
G04 #@! TD*
G04 #@! TO.C,D64*
G36*
G01*
X287662500Y-239312500D02*
X288362500Y-239312500D01*
G75*
G02*
X288612500Y-239562500I0J-250000D01*
G01*
X288612500Y-240062500D01*
G75*
G02*
X288362500Y-240312500I-250000J0D01*
G01*
X287662500Y-240312500D01*
G75*
G02*
X287412500Y-240062500I0J250000D01*
G01*
X287412500Y-239562500D01*
G75*
G02*
X287662500Y-239312500I250000J0D01*
G01*
G37*
G36*
G01*
X287662500Y-236012500D02*
X288362500Y-236012500D01*
G75*
G02*
X288612500Y-236262500I0J-250000D01*
G01*
X288612500Y-236762500D01*
G75*
G02*
X288362500Y-237012500I-250000J0D01*
G01*
X287662500Y-237012500D01*
G75*
G02*
X287412500Y-236762500I0J250000D01*
G01*
X287412500Y-236262500D01*
G75*
G02*
X287662500Y-236012500I250000J0D01*
G01*
G37*
G04 #@! TD*
G04 #@! TO.C,D65*
G36*
G01*
X306712500Y-236012500D02*
X307412500Y-236012500D01*
G75*
G02*
X307662500Y-236262500I0J-250000D01*
G01*
X307662500Y-236762500D01*
G75*
G02*
X307412500Y-237012500I-250000J0D01*
G01*
X306712500Y-237012500D01*
G75*
G02*
X306462500Y-236762500I0J250000D01*
G01*
X306462500Y-236262500D01*
G75*
G02*
X306712500Y-236012500I250000J0D01*
G01*
G37*
G36*
G01*
X306712500Y-239312500D02*
X307412500Y-239312500D01*
G75*
G02*
X307662500Y-239562500I0J-250000D01*
G01*
X307662500Y-240062500D01*
G75*
G02*
X307412500Y-240312500I-250000J0D01*
G01*
X306712500Y-240312500D01*
G75*
G02*
X306462500Y-240062500I0J250000D01*
G01*
X306462500Y-239562500D01*
G75*
G02*
X306712500Y-239312500I250000J0D01*
G01*
G37*
G04 #@! TD*
G04 #@! TO.C,D66*
G36*
G01*
X325762500Y-239312500D02*
X326462500Y-239312500D01*
G75*
G02*
X326712500Y-239562500I0J-250000D01*
G01*
X326712500Y-240062500D01*
G75*
G02*
X326462500Y-240312500I-250000J0D01*
G01*
X325762500Y-240312500D01*
G75*
G02*
X325512500Y-240062500I0J250000D01*
G01*
X325512500Y-239562500D01*
G75*
G02*
X325762500Y-239312500I250000J0D01*
G01*
G37*
G36*
G01*
X325762500Y-236012500D02*
X326462500Y-236012500D01*
G75*
G02*
X326712500Y-236262500I0J-250000D01*
G01*
X326712500Y-236762500D01*
G75*
G02*
X326462500Y-237012500I-250000J0D01*
G01*
X325762500Y-237012500D01*
G75*
G02*
X325512500Y-236762500I0J250000D01*
G01*
X325512500Y-236262500D01*
G75*
G02*
X325762500Y-236012500I250000J0D01*
G01*
G37*
G04 #@! TD*
G04 #@! TO.C,D67*
G36*
G01*
X344812500Y-236012500D02*
X345512500Y-236012500D01*
G75*
G02*
X345762500Y-236262500I0J-250000D01*
G01*
X345762500Y-236762500D01*
G75*
G02*
X345512500Y-237012500I-250000J0D01*
G01*
X344812500Y-237012500D01*
G75*
G02*
X344562500Y-236762500I0J250000D01*
G01*
X344562500Y-236262500D01*
G75*
G02*
X344812500Y-236012500I250000J0D01*
G01*
G37*
G36*
G01*
X344812500Y-239312500D02*
X345512500Y-239312500D01*
G75*
G02*
X345762500Y-239562500I0J-250000D01*
G01*
X345762500Y-240062500D01*
G75*
G02*
X345512500Y-240312500I-250000J0D01*
G01*
X344812500Y-240312500D01*
G75*
G02*
X344562500Y-240062500I0J250000D01*
G01*
X344562500Y-239562500D01*
G75*
G02*
X344812500Y-239312500I250000J0D01*
G01*
G37*
G04 #@! TD*
G04 #@! TO.C,D68*
G36*
G01*
X363862500Y-239312500D02*
X364562500Y-239312500D01*
G75*
G02*
X364812500Y-239562500I0J-250000D01*
G01*
X364812500Y-240062500D01*
G75*
G02*
X364562500Y-240312500I-250000J0D01*
G01*
X363862500Y-240312500D01*
G75*
G02*
X363612500Y-240062500I0J250000D01*
G01*
X363612500Y-239562500D01*
G75*
G02*
X363862500Y-239312500I250000J0D01*
G01*
G37*
G36*
G01*
X363862500Y-236012500D02*
X364562500Y-236012500D01*
G75*
G02*
X364812500Y-236262500I0J-250000D01*
G01*
X364812500Y-236762500D01*
G75*
G02*
X364562500Y-237012500I-250000J0D01*
G01*
X363862500Y-237012500D01*
G75*
G02*
X363612500Y-236762500I0J250000D01*
G01*
X363612500Y-236262500D01*
G75*
G02*
X363862500Y-236012500I250000J0D01*
G01*
G37*
G04 #@! TD*
G04 #@! TO.C,D69*
G36*
G01*
X399581250Y-239312500D02*
X400281250Y-239312500D01*
G75*
G02*
X400531250Y-239562500I0J-250000D01*
G01*
X400531250Y-240062500D01*
G75*
G02*
X400281250Y-240312500I-250000J0D01*
G01*
X399581250Y-240312500D01*
G75*
G02*
X399331250Y-240062500I0J250000D01*
G01*
X399331250Y-239562500D01*
G75*
G02*
X399581250Y-239312500I250000J0D01*
G01*
G37*
G36*
G01*
X399581250Y-236012500D02*
X400281250Y-236012500D01*
G75*
G02*
X400531250Y-236262500I0J-250000D01*
G01*
X400531250Y-236762500D01*
G75*
G02*
X400281250Y-237012500I-250000J0D01*
G01*
X399581250Y-237012500D01*
G75*
G02*
X399331250Y-236762500I0J250000D01*
G01*
X399331250Y-236262500D01*
G75*
G02*
X399581250Y-236012500I250000J0D01*
G01*
G37*
G04 #@! TD*
G04 #@! TO.C,D70*
G36*
G01*
X449587500Y-255062500D02*
X450287500Y-255062500D01*
G75*
G02*
X450537500Y-255312500I0J-250000D01*
G01*
X450537500Y-255812500D01*
G75*
G02*
X450287500Y-256062500I-250000J0D01*
G01*
X449587500Y-256062500D01*
G75*
G02*
X449337500Y-255812500I0J250000D01*
G01*
X449337500Y-255312500D01*
G75*
G02*
X449587500Y-255062500I250000J0D01*
G01*
G37*
G36*
G01*
X449587500Y-258362500D02*
X450287500Y-258362500D01*
G75*
G02*
X450537500Y-258612500I0J-250000D01*
G01*
X450537500Y-259112500D01*
G75*
G02*
X450287500Y-259362500I-250000J0D01*
G01*
X449587500Y-259362500D01*
G75*
G02*
X449337500Y-259112500I0J250000D01*
G01*
X449337500Y-258612500D01*
G75*
G02*
X449587500Y-258362500I250000J0D01*
G01*
G37*
G04 #@! TD*
G04 #@! TO.C,D71*
G36*
G01*
X468637500Y-258362500D02*
X469337500Y-258362500D01*
G75*
G02*
X469587500Y-258612500I0J-250000D01*
G01*
X469587500Y-259112500D01*
G75*
G02*
X469337500Y-259362500I-250000J0D01*
G01*
X468637500Y-259362500D01*
G75*
G02*
X468387500Y-259112500I0J250000D01*
G01*
X468387500Y-258612500D01*
G75*
G02*
X468637500Y-258362500I250000J0D01*
G01*
G37*
G36*
G01*
X468637500Y-255062500D02*
X469337500Y-255062500D01*
G75*
G02*
X469587500Y-255312500I0J-250000D01*
G01*
X469587500Y-255812500D01*
G75*
G02*
X469337500Y-256062500I-250000J0D01*
G01*
X468637500Y-256062500D01*
G75*
G02*
X468387500Y-255812500I0J250000D01*
G01*
X468387500Y-255312500D01*
G75*
G02*
X468637500Y-255062500I250000J0D01*
G01*
G37*
G04 #@! TD*
G04 #@! TO.C,D72*
G36*
G01*
X487687500Y-258362500D02*
X488387500Y-258362500D01*
G75*
G02*
X488637500Y-258612500I0J-250000D01*
G01*
X488637500Y-259112500D01*
G75*
G02*
X488387500Y-259362500I-250000J0D01*
G01*
X487687500Y-259362500D01*
G75*
G02*
X487437500Y-259112500I0J250000D01*
G01*
X487437500Y-258612500D01*
G75*
G02*
X487687500Y-258362500I250000J0D01*
G01*
G37*
G36*
G01*
X487687500Y-255062500D02*
X488387500Y-255062500D01*
G75*
G02*
X488637500Y-255312500I0J-250000D01*
G01*
X488637500Y-255812500D01*
G75*
G02*
X488387500Y-256062500I-250000J0D01*
G01*
X487687500Y-256062500D01*
G75*
G02*
X487437500Y-255812500I0J250000D01*
G01*
X487437500Y-255312500D01*
G75*
G02*
X487687500Y-255062500I250000J0D01*
G01*
G37*
G04 #@! TD*
G04 #@! TO.C,D73*
G36*
G01*
X149550000Y-258362500D02*
X150250000Y-258362500D01*
G75*
G02*
X150500000Y-258612500I0J-250000D01*
G01*
X150500000Y-259112500D01*
G75*
G02*
X150250000Y-259362500I-250000J0D01*
G01*
X149550000Y-259362500D01*
G75*
G02*
X149300000Y-259112500I0J250000D01*
G01*
X149300000Y-258612500D01*
G75*
G02*
X149550000Y-258362500I250000J0D01*
G01*
G37*
G36*
G01*
X149550000Y-255062500D02*
X150250000Y-255062500D01*
G75*
G02*
X150500000Y-255312500I0J-250000D01*
G01*
X150500000Y-255812500D01*
G75*
G02*
X150250000Y-256062500I-250000J0D01*
G01*
X149550000Y-256062500D01*
G75*
G02*
X149300000Y-255812500I0J250000D01*
G01*
X149300000Y-255312500D01*
G75*
G02*
X149550000Y-255062500I250000J0D01*
G01*
G37*
G04 #@! TD*
G04 #@! TO.C,D74*
G36*
G01*
X175743750Y-258362500D02*
X176443750Y-258362500D01*
G75*
G02*
X176693750Y-258612500I0J-250000D01*
G01*
X176693750Y-259112500D01*
G75*
G02*
X176443750Y-259362500I-250000J0D01*
G01*
X175743750Y-259362500D01*
G75*
G02*
X175493750Y-259112500I0J250000D01*
G01*
X175493750Y-258612500D01*
G75*
G02*
X175743750Y-258362500I250000J0D01*
G01*
G37*
G36*
G01*
X175743750Y-255062500D02*
X176443750Y-255062500D01*
G75*
G02*
X176693750Y-255312500I0J-250000D01*
G01*
X176693750Y-255812500D01*
G75*
G02*
X176443750Y-256062500I-250000J0D01*
G01*
X175743750Y-256062500D01*
G75*
G02*
X175493750Y-255812500I0J250000D01*
G01*
X175493750Y-255312500D01*
G75*
G02*
X175743750Y-255062500I250000J0D01*
G01*
G37*
G04 #@! TD*
G04 #@! TO.C,D75*
G36*
G01*
X199556250Y-255062500D02*
X200256250Y-255062500D01*
G75*
G02*
X200506250Y-255312500I0J-250000D01*
G01*
X200506250Y-255812500D01*
G75*
G02*
X200256250Y-256062500I-250000J0D01*
G01*
X199556250Y-256062500D01*
G75*
G02*
X199306250Y-255812500I0J250000D01*
G01*
X199306250Y-255312500D01*
G75*
G02*
X199556250Y-255062500I250000J0D01*
G01*
G37*
G36*
G01*
X199556250Y-258362500D02*
X200256250Y-258362500D01*
G75*
G02*
X200506250Y-258612500I0J-250000D01*
G01*
X200506250Y-259112500D01*
G75*
G02*
X200256250Y-259362500I-250000J0D01*
G01*
X199556250Y-259362500D01*
G75*
G02*
X199306250Y-259112500I0J250000D01*
G01*
X199306250Y-258612500D01*
G75*
G02*
X199556250Y-258362500I250000J0D01*
G01*
G37*
G04 #@! TD*
G04 #@! TO.C,D76*
G36*
G01*
X278137500Y-258362500D02*
X278837500Y-258362500D01*
G75*
G02*
X279087500Y-258612500I0J-250000D01*
G01*
X279087500Y-259112500D01*
G75*
G02*
X278837500Y-259362500I-250000J0D01*
G01*
X278137500Y-259362500D01*
G75*
G02*
X277887500Y-259112500I0J250000D01*
G01*
X277887500Y-258612500D01*
G75*
G02*
X278137500Y-258362500I250000J0D01*
G01*
G37*
G36*
G01*
X278137500Y-255062500D02*
X278837500Y-255062500D01*
G75*
G02*
X279087500Y-255312500I0J-250000D01*
G01*
X279087500Y-255812500D01*
G75*
G02*
X278837500Y-256062500I-250000J0D01*
G01*
X278137500Y-256062500D01*
G75*
G02*
X277887500Y-255812500I0J250000D01*
G01*
X277887500Y-255312500D01*
G75*
G02*
X278137500Y-255062500I250000J0D01*
G01*
G37*
G04 #@! TD*
G04 #@! TO.C,D77*
G36*
G01*
X356718750Y-255062500D02*
X357418750Y-255062500D01*
G75*
G02*
X357668750Y-255312500I0J-250000D01*
G01*
X357668750Y-255812500D01*
G75*
G02*
X357418750Y-256062500I-250000J0D01*
G01*
X356718750Y-256062500D01*
G75*
G02*
X356468750Y-255812500I0J250000D01*
G01*
X356468750Y-255312500D01*
G75*
G02*
X356718750Y-255062500I250000J0D01*
G01*
G37*
G36*
G01*
X356718750Y-258362500D02*
X357418750Y-258362500D01*
G75*
G02*
X357668750Y-258612500I0J-250000D01*
G01*
X357668750Y-259112500D01*
G75*
G02*
X357418750Y-259362500I-250000J0D01*
G01*
X356718750Y-259362500D01*
G75*
G02*
X356468750Y-259112500I0J250000D01*
G01*
X356468750Y-258612500D01*
G75*
G02*
X356718750Y-258362500I250000J0D01*
G01*
G37*
G04 #@! TD*
G04 #@! TO.C,D78*
G36*
G01*
X380531250Y-255062500D02*
X381231250Y-255062500D01*
G75*
G02*
X381481250Y-255312500I0J-250000D01*
G01*
X381481250Y-255812500D01*
G75*
G02*
X381231250Y-256062500I-250000J0D01*
G01*
X380531250Y-256062500D01*
G75*
G02*
X380281250Y-255812500I0J250000D01*
G01*
X380281250Y-255312500D01*
G75*
G02*
X380531250Y-255062500I250000J0D01*
G01*
G37*
G36*
G01*
X380531250Y-258362500D02*
X381231250Y-258362500D01*
G75*
G02*
X381481250Y-258612500I0J-250000D01*
G01*
X381481250Y-259112500D01*
G75*
G02*
X381231250Y-259362500I-250000J0D01*
G01*
X380531250Y-259362500D01*
G75*
G02*
X380281250Y-259112500I0J250000D01*
G01*
X380281250Y-258612500D01*
G75*
G02*
X380531250Y-258362500I250000J0D01*
G01*
G37*
G04 #@! TD*
G04 #@! TO.C,D79*
G36*
G01*
X406725000Y-258362500D02*
X407425000Y-258362500D01*
G75*
G02*
X407675000Y-258612500I0J-250000D01*
G01*
X407675000Y-259112500D01*
G75*
G02*
X407425000Y-259362500I-250000J0D01*
G01*
X406725000Y-259362500D01*
G75*
G02*
X406475000Y-259112500I0J250000D01*
G01*
X406475000Y-258612500D01*
G75*
G02*
X406725000Y-258362500I250000J0D01*
G01*
G37*
G36*
G01*
X406725000Y-255062500D02*
X407425000Y-255062500D01*
G75*
G02*
X407675000Y-255312500I0J-250000D01*
G01*
X407675000Y-255812500D01*
G75*
G02*
X407425000Y-256062500I-250000J0D01*
G01*
X406725000Y-256062500D01*
G75*
G02*
X406475000Y-255812500I0J250000D01*
G01*
X406475000Y-255312500D01*
G75*
G02*
X406725000Y-255062500I250000J0D01*
G01*
G37*
G04 #@! TD*
G04 #@! TO.C,D80*
G36*
G01*
X122150000Y-178850000D02*
X122850000Y-178850000D01*
G75*
G02*
X123100000Y-179100000I0J-250000D01*
G01*
X123100000Y-179600000D01*
G75*
G02*
X122850000Y-179850000I-250000J0D01*
G01*
X122150000Y-179850000D01*
G75*
G02*
X121900000Y-179600000I0J250000D01*
G01*
X121900000Y-179100000D01*
G75*
G02*
X122150000Y-178850000I250000J0D01*
G01*
G37*
G36*
G01*
X122150000Y-182150000D02*
X122850000Y-182150000D01*
G75*
G02*
X123100000Y-182400000I0J-250000D01*
G01*
X123100000Y-182900000D01*
G75*
G02*
X122850000Y-183150000I-250000J0D01*
G01*
X122150000Y-183150000D01*
G75*
G02*
X121900000Y-182900000I0J250000D01*
G01*
X121900000Y-182400000D01*
G75*
G02*
X122150000Y-182150000I250000J0D01*
G01*
G37*
G04 #@! TD*
D11*
G04 #@! TO.C,MX_U1*
X301506250Y-195300000D03*
D10*
X296426250Y-195300000D03*
X306586250Y-195300000D03*
D12*
X294386250Y-192760000D03*
X307356250Y-190220000D03*
G04 #@! TD*
M02*
