G04 #@! TF.GenerationSoftware,KiCad,Pcbnew,(5.1.9)-1*
G04 #@! TF.CreationDate,2021-04-13T22:09:09-06:00*
G04 #@! TF.ProjectId,64,36342e6b-6963-4616-945f-706362585858,rev?*
G04 #@! TF.SameCoordinates,Original*
G04 #@! TF.FileFunction,Profile,NP*
%FSLAX46Y46*%
G04 Gerber Fmt 4.6, Leading zero omitted, Abs format (unit mm)*
G04 Created by KiCad (PCBNEW (5.1.9)-1) date 2021-04-13 22:09:09*
%MOMM*%
%LPD*%
G01*
G04 APERTURE LIST*
G04 #@! TA.AperFunction,Profile*
%ADD10C,0.050000*%
G04 #@! TD*
G04 APERTURE END LIST*
D10*
X369887500Y-241300000D02*
G75*
G02*
X370681250Y-242093750I0J-793750D01*
G01*
X358775000Y-242887500D02*
G75*
G02*
X357981250Y-242093750I0J793750D01*
G01*
X358775000Y-241300000D02*
X369887500Y-241300000D01*
X369887500Y-242887500D02*
X358775000Y-242887500D01*
X370681250Y-242093750D02*
G75*
G02*
X369887500Y-242887500I-793750J0D01*
G01*
X357981250Y-242093750D02*
G75*
G02*
X358775000Y-241300000I793750J0D01*
G01*
X217487500Y-241300000D02*
G75*
G02*
X218281250Y-242093750I0J-793750D01*
G01*
X206375000Y-242887500D02*
G75*
G02*
X205581250Y-242093750I0J793750D01*
G01*
X206375000Y-241300000D02*
X217487500Y-241300000D01*
X217487500Y-242887500D02*
X206375000Y-242887500D01*
X218281250Y-242093750D02*
G75*
G02*
X217487500Y-242887500I-793750J0D01*
G01*
X205581250Y-242093750D02*
G75*
G02*
X206375000Y-241300000I793750J0D01*
G01*
X320675000Y-242887500D02*
G75*
G02*
X319881250Y-242093750I0J793750D01*
G01*
X320675000Y-241300000D02*
X331787500Y-241300000D01*
X331787500Y-242887500D02*
X320675000Y-242887500D01*
X332581250Y-242093750D02*
G75*
G02*
X331787500Y-242887500I-793750J0D01*
G01*
X331787500Y-241300000D02*
G75*
G02*
X332581250Y-242093750I0J-793750D01*
G01*
X319881250Y-242093750D02*
G75*
G02*
X320675000Y-241300000I793750J0D01*
G01*
X281781250Y-242887500D02*
G75*
G02*
X280987500Y-242093750I0J793750D01*
G01*
X293687500Y-242093750D02*
G75*
G02*
X292893750Y-242887500I-793750J0D01*
G01*
X292893750Y-242887500D02*
X281781250Y-242887500D01*
X292893750Y-241300000D02*
G75*
G02*
X293687500Y-242093750I0J-793750D01*
G01*
X281781250Y-241300000D02*
X292893750Y-241300000D01*
X280987500Y-242093750D02*
G75*
G02*
X281781250Y-241300000I793750J0D01*
G01*
X244475000Y-242887500D02*
G75*
G02*
X243681250Y-242093750I0J793750D01*
G01*
X256381250Y-242093750D02*
G75*
G02*
X255587500Y-242887500I-793750J0D01*
G01*
X255587500Y-242887500D02*
X244475000Y-242887500D01*
X255587500Y-241300000D02*
G75*
G02*
X256381250Y-242093750I0J-793750D01*
G01*
X244475000Y-241300000D02*
X255587500Y-241300000D01*
X243681250Y-242093750D02*
G75*
G02*
X244475000Y-241300000I793750J0D01*
G01*
X163512500Y-205581250D02*
G75*
G02*
X162718750Y-204787500I0J793750D01*
G01*
X175418750Y-204787500D02*
G75*
G02*
X174625000Y-205581250I-793750J0D01*
G01*
X174625000Y-205581250D02*
X163512500Y-205581250D01*
X174625000Y-203993750D02*
G75*
G02*
X175418750Y-204787500I0J-793750D01*
G01*
X163512500Y-203993750D02*
X174625000Y-203993750D01*
X162718750Y-204787500D02*
G75*
G02*
X163512500Y-203993750I793750J0D01*
G01*
X168275000Y-186531250D02*
G75*
G02*
X167481250Y-185737500I0J793750D01*
G01*
X180181250Y-185737500D02*
G75*
G02*
X179387500Y-186531250I-793750J0D01*
G01*
X179387500Y-186531250D02*
X168275000Y-186531250D01*
X179387500Y-184943750D02*
G75*
G02*
X180181250Y-185737500I0J-793750D01*
G01*
X168275000Y-184943750D02*
X179387500Y-184943750D01*
X167481250Y-185737500D02*
G75*
G02*
X168275000Y-184943750I793750J0D01*
G01*
X401637500Y-205581250D02*
G75*
G02*
X400843750Y-204787500I0J793750D01*
G01*
X413543750Y-204787500D02*
G75*
G02*
X412750000Y-205581250I-793750J0D01*
G01*
X412750000Y-205581250D02*
X401637500Y-205581250D01*
X412750000Y-203993750D02*
G75*
G02*
X413543750Y-204787500I0J-793750D01*
G01*
X401637500Y-203993750D02*
X412750000Y-203993750D01*
X400843750Y-204787500D02*
G75*
G02*
X401637500Y-203993750I793750J0D01*
G01*
X396875000Y-186531250D02*
G75*
G02*
X396081250Y-185737500I0J793750D01*
G01*
X408781250Y-185737500D02*
G75*
G02*
X407987500Y-186531250I-793750J0D01*
G01*
X407987500Y-186531250D02*
X396875000Y-186531250D01*
X407987500Y-184943750D02*
G75*
G02*
X408781250Y-185737500I0J-793750D01*
G01*
X396875000Y-184943750D02*
X407987500Y-184943750D01*
X396081250Y-185737500D02*
G75*
G02*
X396875000Y-184943750I793750J0D01*
G01*
X444500000Y-243681250D02*
G75*
G02*
X443706250Y-242887500I0J793750D01*
G01*
X443706250Y-242887500D02*
G75*
G02*
X444500000Y-242093750I793750J0D01*
G01*
X455612500Y-243681250D02*
X444500000Y-243681250D01*
X455612500Y-242093750D02*
G75*
G02*
X456406250Y-242887500I0J-793750D01*
G01*
X444500000Y-242093750D02*
X455612500Y-242093750D01*
X456406250Y-242887500D02*
G75*
G02*
X455612500Y-243681250I-793750J0D01*
G01*
X463550000Y-243681250D02*
G75*
G02*
X462756250Y-242887500I0J793750D01*
G01*
X462756250Y-242887500D02*
G75*
G02*
X463550000Y-242093750I793750J0D01*
G01*
X474662500Y-243681250D02*
X463550000Y-243681250D01*
X474662500Y-242093750D02*
G75*
G02*
X475456250Y-242887500I0J-793750D01*
G01*
X463550000Y-242093750D02*
X474662500Y-242093750D01*
X475456250Y-242887500D02*
G75*
G02*
X474662500Y-243681250I-793750J0D01*
G01*
X141300000Y-160350000D02*
G75*
G02*
X137300000Y-164350000I-4000000J0D01*
G01*
X137300000Y-149350000D02*
G75*
G02*
X141300000Y-153350000I0J-4000000D01*
G01*
X105300000Y-153350000D02*
G75*
G02*
X109300000Y-149350000I4000000J0D01*
G01*
X109300000Y-164350000D02*
G75*
G02*
X105300000Y-160350000I0J4000000D01*
G01*
X119910000Y-164350000D02*
X109300000Y-164350000D01*
X126710000Y-164350000D02*
X137300000Y-164350000D01*
X94000000Y-165750000D02*
X119910000Y-165750000D01*
X119910000Y-164350000D02*
G75*
G02*
X119910000Y-165750000I0J-700000D01*
G01*
X126710000Y-165750000D02*
G75*
G02*
X126710000Y-164350000I0J700000D01*
G01*
X105300000Y-160350000D02*
X105300000Y-153350000D01*
X141300000Y-153350000D02*
X141300000Y-160350000D01*
X109300000Y-149350000D02*
X137300000Y-149350000D01*
X94000000Y-165750000D02*
X86400000Y-165750000D01*
X126710000Y-165750000D02*
X307000000Y-165750000D01*
X314600000Y-165750000D02*
X307000000Y-165750000D01*
X402300000Y-165750000D02*
X394700000Y-165750000D01*
X490000000Y-165750000D02*
X482400000Y-165750000D01*
X370681250Y-223837500D02*
G75*
G02*
X369887500Y-224631250I-793750J0D01*
G01*
X369887500Y-223043750D02*
G75*
G02*
X370681250Y-223837500I0J-793750D01*
G01*
X358775000Y-223043750D02*
X369887500Y-223043750D01*
X358775000Y-224631250D02*
G75*
G02*
X357981250Y-223837500I0J793750D01*
G01*
X369887500Y-224631250D02*
X358775000Y-224631250D01*
X357981250Y-223837500D02*
G75*
G02*
X358775000Y-223043750I793750J0D01*
G01*
X369887500Y-203993750D02*
G75*
G02*
X370681250Y-204787500I0J-793750D01*
G01*
X370681250Y-204787500D02*
G75*
G02*
X369887500Y-205581250I-793750J0D01*
G01*
X357981250Y-204787500D02*
G75*
G02*
X358775000Y-203993750I793750J0D01*
G01*
X358775000Y-205581250D02*
G75*
G02*
X357981250Y-204787500I0J793750D01*
G01*
X369887500Y-205581250D02*
X358775000Y-205581250D01*
X358775000Y-203993750D02*
X369887500Y-203993750D01*
X369887500Y-184943750D02*
G75*
G02*
X370681250Y-185737500I0J-793750D01*
G01*
X370681250Y-185737500D02*
G75*
G02*
X369887500Y-186531250I-793750J0D01*
G01*
X357981250Y-185737500D02*
G75*
G02*
X358775000Y-184943750I793750J0D01*
G01*
X358775000Y-186531250D02*
G75*
G02*
X357981250Y-185737500I0J793750D01*
G01*
X369887500Y-186531250D02*
X358775000Y-186531250D01*
X358775000Y-184943750D02*
X369887500Y-184943750D01*
X331787500Y-223043750D02*
G75*
G02*
X332581250Y-223837500I0J-793750D01*
G01*
X332581250Y-223837500D02*
G75*
G02*
X331787500Y-224631250I-793750J0D01*
G01*
X319881250Y-223837500D02*
G75*
G02*
X320675000Y-223043750I793750J0D01*
G01*
X320675000Y-224631250D02*
G75*
G02*
X319881250Y-223837500I0J793750D01*
G01*
X331787500Y-224631250D02*
X320675000Y-224631250D01*
X320675000Y-223043750D02*
X331787500Y-223043750D01*
X331787500Y-203993750D02*
G75*
G02*
X332581250Y-204787500I0J-793750D01*
G01*
X332581250Y-204787500D02*
G75*
G02*
X331787500Y-205581250I-793750J0D01*
G01*
X319881250Y-204787500D02*
G75*
G02*
X320675000Y-203993750I793750J0D01*
G01*
X320675000Y-205581250D02*
G75*
G02*
X319881250Y-204787500I0J793750D01*
G01*
X331787500Y-205581250D02*
X320675000Y-205581250D01*
X320675000Y-203993750D02*
X331787500Y-203993750D01*
X331787500Y-184943750D02*
G75*
G02*
X332581250Y-185737500I0J-793750D01*
G01*
X332581250Y-185737500D02*
G75*
G02*
X331787500Y-186531250I-793750J0D01*
G01*
X319881250Y-185737500D02*
G75*
G02*
X320675000Y-184943750I793750J0D01*
G01*
X320675000Y-186531250D02*
G75*
G02*
X319881250Y-185737500I0J793750D01*
G01*
X331787500Y-186531250D02*
X320675000Y-186531250D01*
X320675000Y-184943750D02*
X331787500Y-184943750D01*
X292893750Y-223043750D02*
G75*
G02*
X293687500Y-223837500I0J-793750D01*
G01*
X293687500Y-223837500D02*
G75*
G02*
X292893750Y-224631250I-793750J0D01*
G01*
X280987500Y-223837500D02*
G75*
G02*
X281781250Y-223043750I793750J0D01*
G01*
X281781250Y-224631250D02*
G75*
G02*
X280987500Y-223837500I0J793750D01*
G01*
X292893750Y-224631250D02*
X281781250Y-224631250D01*
X281781250Y-223043750D02*
X292893750Y-223043750D01*
X293687500Y-203993750D02*
G75*
G02*
X294481250Y-204787500I0J-793750D01*
G01*
X294481250Y-204787500D02*
G75*
G02*
X293687500Y-205581250I-793750J0D01*
G01*
X281781250Y-204787500D02*
G75*
G02*
X282575000Y-203993750I793750J0D01*
G01*
X282575000Y-205581250D02*
G75*
G02*
X281781250Y-204787500I0J793750D01*
G01*
X293687500Y-205581250D02*
X282575000Y-205581250D01*
X282575000Y-203993750D02*
X293687500Y-203993750D01*
X293687500Y-184943750D02*
G75*
G02*
X294481250Y-185737500I0J-793750D01*
G01*
X294481250Y-185737500D02*
G75*
G02*
X293687500Y-186531250I-793750J0D01*
G01*
X281781250Y-185737500D02*
G75*
G02*
X282575000Y-184943750I793750J0D01*
G01*
X282575000Y-186531250D02*
G75*
G02*
X281781250Y-185737500I0J793750D01*
G01*
X293687500Y-186531250D02*
X282575000Y-186531250D01*
X282575000Y-184943750D02*
X293687500Y-184943750D01*
X255587500Y-223043750D02*
G75*
G02*
X256381250Y-223837500I0J-793750D01*
G01*
X256381250Y-223837500D02*
G75*
G02*
X255587500Y-224631250I-793750J0D01*
G01*
X243681250Y-223837500D02*
G75*
G02*
X244475000Y-223043750I793750J0D01*
G01*
X244475000Y-224631250D02*
G75*
G02*
X243681250Y-223837500I0J793750D01*
G01*
X255587500Y-224631250D02*
X244475000Y-224631250D01*
X244475000Y-223043750D02*
X255587500Y-223043750D01*
X255587500Y-203993750D02*
G75*
G02*
X256381250Y-204787500I0J-793750D01*
G01*
X256381250Y-204787500D02*
G75*
G02*
X255587500Y-205581250I-793750J0D01*
G01*
X243681250Y-204787500D02*
G75*
G02*
X244475000Y-203993750I793750J0D01*
G01*
X244475000Y-205581250D02*
G75*
G02*
X243681250Y-204787500I0J793750D01*
G01*
X255587500Y-205581250D02*
X244475000Y-205581250D01*
X244475000Y-203993750D02*
X255587500Y-203993750D01*
X255587500Y-184943750D02*
G75*
G02*
X256381250Y-185737500I0J-793750D01*
G01*
X256381250Y-185737500D02*
G75*
G02*
X255587500Y-186531250I-793750J0D01*
G01*
X243681250Y-185737500D02*
G75*
G02*
X244475000Y-184943750I793750J0D01*
G01*
X244475000Y-186531250D02*
G75*
G02*
X243681250Y-185737500I0J793750D01*
G01*
X255587500Y-186531250D02*
X244475000Y-186531250D01*
X244475000Y-184943750D02*
X255587500Y-184943750D01*
X217487500Y-223043750D02*
G75*
G02*
X218281250Y-223837500I0J-793750D01*
G01*
X218281250Y-223837500D02*
G75*
G02*
X217487500Y-224631250I-793750J0D01*
G01*
X205581250Y-223837500D02*
G75*
G02*
X206375000Y-223043750I793750J0D01*
G01*
X206375000Y-224631250D02*
G75*
G02*
X205581250Y-223837500I0J793750D01*
G01*
X217487500Y-224631250D02*
X206375000Y-224631250D01*
X206375000Y-223043750D02*
X217487500Y-223043750D01*
X217487500Y-184943750D02*
G75*
G02*
X218281250Y-185737500I0J-793750D01*
G01*
X218281250Y-185737500D02*
G75*
G02*
X217487500Y-186531250I-793750J0D01*
G01*
X205581250Y-185737500D02*
G75*
G02*
X206375000Y-184943750I793750J0D01*
G01*
X206375000Y-186531250D02*
G75*
G02*
X205581250Y-185737500I0J793750D01*
G01*
X217487500Y-186531250D02*
X206375000Y-186531250D01*
X206375000Y-184943750D02*
X217487500Y-184943750D01*
X217487500Y-203993750D02*
G75*
G02*
X218281250Y-204787500I0J-793750D01*
G01*
X218281250Y-204787500D02*
G75*
G02*
X217487500Y-205581250I-793750J0D01*
G01*
X205581250Y-204787500D02*
G75*
G02*
X206375000Y-203993750I793750J0D01*
G01*
X206375000Y-205581250D02*
G75*
G02*
X205581250Y-204787500I0J793750D01*
G01*
X217487500Y-205581250D02*
X206375000Y-205581250D01*
X206375000Y-203993750D02*
X217487500Y-203993750D01*
X492000000Y-261400000D02*
G75*
G02*
X490000000Y-263400000I-2000000J0D01*
G01*
X490000000Y-165750000D02*
G75*
G02*
X492000000Y-167750000I0J-2000000D01*
G01*
X84400000Y-167750000D02*
G75*
G02*
X86400000Y-165750000I2000000J0D01*
G01*
X86350000Y-263400000D02*
G75*
G02*
X84350000Y-261400000I0J2000000D01*
G01*
X394700000Y-165750000D02*
X314600000Y-165750000D01*
X482400000Y-165750000D02*
X402300000Y-165750000D01*
X492000000Y-261400000D02*
X492000000Y-167750000D01*
X490000000Y-263400000D02*
X86350000Y-263400000D01*
X84350000Y-261400000D02*
X84400000Y-167750000D01*
M02*
