M48
; DRILL file {KiCad (5.1.9)-1} date 04/13/21 22:09:13
; FORMAT={-:-/ absolute / inch / decimal}
; #@! TF.CreationDate,2021-04-13T22:09:13-06:00
; #@! TF.GenerationSoftware,Kicad,Pcbnew,(5.1.9)-1
; #@! TF.FileFunction,NonPlated,1,2,NPTH
FMAT,2
INCH
T1C0.0256
T2C0.0315
T3C0.0689
T4C0.1200
T5C0.1570
%
G90
G05
T1
X5.0437Y-6.1293
X5.2713Y-6.1293
T2
X4.7563Y-6.4713
X4.7563Y-6.5244
X4.8055Y-6.4713
X4.8055Y-6.5244
X4.8547Y-6.4713
X4.8547Y-6.5244
X4.9039Y-6.4713
X4.9039Y-6.5244
X4.9531Y-6.4713
X4.9531Y-6.5244
T3
X5.4828Y-9.939
X5.8828Y-9.939
X5.9516Y-9.189
X6.1391Y-8.439
X6.2328Y-7.689
X6.3516Y-9.189
X6.4203Y-6.939
X6.5141Y-9.939
X6.5391Y-8.439
X6.6328Y-7.689
X6.8203Y-6.939
X6.9141Y-9.939
X7.1703Y-6.939
X7.1703Y-7.689
X7.1703Y-8.439
X7.1703Y-9.189
X7.4516Y-9.939
X7.5703Y-6.939
X7.5703Y-7.689
X7.5703Y-8.439
X7.5703Y-9.189
X7.8516Y-9.939
X7.9203Y-6.939
X7.9203Y-7.689
X7.9203Y-8.439
X7.9203Y-9.189
X8.3203Y-6.939
X8.3203Y-7.689
X8.3203Y-8.439
X8.3203Y-9.189
X8.6703Y-6.939
X8.6703Y-7.689
X8.6703Y-8.439
X8.6703Y-9.189
X9.0703Y-6.939
X9.0703Y-7.689
X9.0703Y-8.439
X9.0703Y-9.189
X9.4203Y-6.939
X9.4203Y-7.689
X9.4203Y-8.439
X9.4203Y-9.189
X9.8203Y-6.939
X9.8203Y-7.689
X9.8203Y-8.439
X9.8203Y-9.189
X10.1703Y-6.939
X10.1703Y-7.689
X10.1703Y-8.439
X10.1703Y-9.189
X10.5453Y-9.939
X10.5703Y-6.939
X10.5703Y-7.689
X10.5703Y-8.439
X10.5703Y-9.189
X10.9203Y-6.939
X10.9203Y-7.689
X10.9203Y-8.439
X10.9203Y-9.189
X10.9453Y-9.939
X11.3203Y-6.939
X11.3203Y-7.689
X11.3203Y-8.439
X11.3203Y-9.189
X11.6703Y-6.939
X11.6703Y-7.689
X11.6703Y-8.439
X11.6703Y-9.189
X12.0703Y-6.939
X12.0703Y-7.689
X12.0703Y-8.439
X12.0703Y-9.189
X12.4203Y-6.939
X12.4203Y-7.689
X12.4203Y-8.439
X12.4203Y-9.189
X12.8203Y-6.939
X12.8203Y-7.689
X12.8203Y-8.439
X12.8203Y-9.189
X13.1703Y-6.939
X13.1703Y-7.689
X13.1703Y-8.439
X13.1703Y-9.189
X13.5703Y-6.939
X13.5703Y-7.689
X13.5703Y-8.439
X13.5703Y-9.189
X13.6391Y-9.939
X13.9203Y-6.939
X13.9203Y-7.689
X13.9203Y-8.439
X13.9203Y-9.189
X14.0391Y-9.939
X14.3203Y-6.939
X14.3203Y-7.689
X14.3203Y-8.439
X14.3203Y-9.189
X14.5766Y-9.939
X14.6703Y-6.939
X14.6703Y-7.689
X14.6703Y-8.439
X14.9766Y-9.939
X15.0703Y-6.939
X15.0703Y-7.689
X15.0703Y-8.439
X15.3266Y-9.189
X15.4203Y-6.939
X15.4203Y-7.689
X15.6078Y-9.939
X15.7266Y-9.189
X15.8203Y-6.939
X15.8203Y-7.689
X15.8891Y-8.439
X16.0078Y-9.939
X16.2891Y-8.439
X16.3578Y-7.689
X16.5453Y-6.939
X16.7578Y-7.689
X16.9453Y-6.939
X17.2953Y-9.939
X17.6953Y-9.939
X18.0453Y-9.189
X18.0453Y-9.939
X18.4453Y-9.189
X18.4453Y-9.939
X18.7953Y-9.939
X19.1953Y-9.939
T4
X5.6816Y-8.914
X6.6216Y-8.914
X8.4953Y-9.664
X12.9953Y-9.664
X15.0566Y-8.914
X15.6191Y-8.164
X15.9966Y-8.914
X16.2753Y-6.664
X16.5591Y-8.164
X17.2153Y-6.664
T5
X5.6816Y-9.514
X5.6828Y-9.939
X6.1516Y-9.189
X6.3391Y-8.439
X6.4328Y-7.689
X6.6203Y-6.939
X6.6216Y-9.514
X6.7141Y-9.939
X7.3703Y-6.939
X7.3703Y-7.689
X7.3703Y-8.439
X7.3703Y-9.189
X7.6516Y-9.939
X8.1203Y-6.939
X8.1203Y-7.689
X8.1203Y-8.439
X8.1203Y-9.189
X8.4953Y-10.264
X8.8703Y-6.939
X8.8703Y-7.689
X8.8703Y-8.439
X8.8703Y-9.189
X9.6203Y-6.939
X9.6203Y-7.689
X9.6203Y-8.439
X9.6203Y-9.189
X10.3703Y-6.939
X10.3703Y-7.689
X10.3703Y-8.439
X10.3703Y-9.189
X10.7453Y-9.939
X11.1203Y-6.939
X11.1203Y-7.689
X11.1203Y-8.439
X11.1203Y-9.189
X11.8703Y-6.939
X11.8703Y-7.689
X11.8703Y-8.439
X11.8703Y-9.189
X12.6203Y-6.939
X12.6203Y-7.689
X12.6203Y-8.439
X12.6203Y-9.189
X12.9953Y-10.264
X13.3703Y-6.939
X13.3703Y-7.689
X13.3703Y-8.439
X13.3703Y-9.189
X13.8391Y-9.939
X14.1203Y-6.939
X14.1203Y-7.689
X14.1203Y-8.439
X14.1203Y-9.189
X14.7766Y-9.939
X14.8703Y-6.939
X14.8703Y-7.689
X14.8703Y-8.439
X15.0566Y-9.514
X15.5266Y-9.189
X15.6191Y-8.764
X15.6203Y-6.939
X15.6203Y-7.689
X15.8078Y-9.939
X15.9966Y-9.514
X16.0891Y-8.439
X16.2753Y-7.264
X16.5578Y-7.689
X16.5591Y-8.764
X16.7453Y-6.939
X17.2153Y-7.264
X17.4953Y-9.939
X18.2453Y-9.189
X18.2453Y-9.939
X18.9953Y-9.939
T0
M30
