M48
; DRILL file {KiCad (5.1.9)-1} date 04/13/21 22:09:13
; FORMAT={-:-/ absolute / inch / decimal}
; #@! TF.CreationDate,2021-04-13T22:09:13-06:00
; #@! TF.GenerationSoftware,Kicad,Pcbnew,(5.1.9)-1
; #@! TF.FileFunction,Plated,1,2,PTH
FMAT,2
INCH
T1C0.0120
T2C0.0157
T3C0.0236
T4C0.0500
T5C0.0709
T6C0.0984
T7C0.1181
%
G90
G05
T1
X3.849Y-9.4357
X3.8491Y-9.4042
X3.8492Y-9.3727
X4.0965Y-9.7134
X4.1283Y-9.7134
X4.1594Y-9.7134
X4.1906Y-9.7134
X4.2224Y-9.7134
X4.2539Y-9.7134
X4.2854Y-9.7134
X4.3169Y-9.7134
X4.5016Y-6.165
X4.6161Y-9.5437
X4.6161Y-9.6067
X4.6164Y-9.5751
X4.6795Y-6.3516
X4.9063Y-6.248
X5.0929Y-6.3528
X5.1575Y-6.2772
X5.163Y-6.3319
X10.7441Y-10.315
T2
X3.8669Y-9.0724
X3.9354Y-9.1012
X3.9354Y-9.5772
X4.0016Y-8.8724
X4.0591Y-9.0539
X4.1311Y-8.7016
X4.2075Y-8.8705
X4.2884Y-9.0536
X4.5126Y-9.2804
X4.5244Y-9.0539
X4.5465Y-9.6228
X4.6579Y-9.137
X5.061Y-6.2394
X5.2549Y-6.2394
X5.3328Y-9.809
X5.3328Y-9.869
X5.8016Y-9.059
X5.8016Y-9.119
X5.9828Y-9.709
X5.9828Y-9.769
X5.9891Y-8.309
X5.9891Y-8.369
X6.0828Y-7.559
X6.0828Y-7.619
X6.2703Y-6.809
X6.2703Y-6.869
X6.3641Y-9.809
X6.3641Y-9.869
X6.4516Y-8.959
X6.4516Y-9.019
X6.6391Y-8.209
X6.6391Y-8.269
X6.7328Y-7.459
X6.7328Y-7.519
X6.9203Y-6.709
X6.9203Y-6.769
X7.0141Y-9.709
X7.0141Y-9.769
X7.0203Y-6.809
X7.0203Y-6.869
X7.0203Y-7.559
X7.0203Y-7.619
X7.0203Y-8.309
X7.0203Y-8.369
X7.0203Y-9.059
X7.0203Y-9.119
X7.3016Y-9.809
X7.3016Y-9.869
X7.6703Y-6.709
X7.6703Y-6.769
X7.6703Y-7.459
X7.6703Y-7.519
X7.6703Y-8.209
X7.6703Y-8.269
X7.6703Y-8.959
X7.6703Y-9.019
X7.7703Y-6.809
X7.7703Y-6.869
X7.7703Y-7.559
X7.7703Y-7.619
X7.7703Y-8.309
X7.7703Y-8.369
X7.7703Y-9.059
X7.7703Y-9.119
X7.9516Y-9.709
X7.9516Y-9.769
X8.4203Y-6.709
X8.4203Y-6.769
X8.4203Y-7.459
X8.4203Y-7.519
X8.4203Y-8.209
X8.4203Y-8.269
X8.4203Y-8.959
X8.4203Y-9.019
X8.5203Y-6.809
X8.5203Y-6.869
X8.5203Y-7.559
X8.5203Y-7.619
X8.5203Y-8.309
X8.5203Y-8.369
X8.5203Y-9.059
X8.5203Y-9.119
X9.1703Y-6.709
X9.1703Y-6.769
X9.1703Y-7.459
X9.1703Y-7.519
X9.1703Y-8.209
X9.1703Y-8.269
X9.1703Y-8.959
X9.1703Y-9.019
X9.2703Y-6.809
X9.2703Y-6.869
X9.2703Y-7.559
X9.2703Y-7.619
X9.2703Y-8.309
X9.2703Y-8.369
X9.2703Y-9.059
X9.2703Y-9.119
X9.9203Y-6.709
X9.9203Y-6.769
X9.9203Y-7.459
X9.9203Y-7.519
X9.9203Y-8.209
X9.9203Y-8.269
X9.9203Y-8.959
X9.9203Y-9.019
X10.0203Y-6.809
X10.0203Y-6.869
X10.0203Y-7.559
X10.0203Y-7.619
X10.0203Y-8.309
X10.0203Y-8.369
X10.0203Y-9.059
X10.0203Y-9.119
X10.3953Y-9.809
X10.3953Y-9.869
X10.6703Y-6.709
X10.6703Y-6.769
X10.6703Y-7.459
X10.6703Y-7.519
X10.6703Y-8.209
X10.6703Y-8.269
X10.6703Y-8.959
X10.6703Y-9.019
X10.7703Y-6.809
X10.7703Y-6.869
X10.7703Y-7.559
X10.7703Y-7.619
X10.7703Y-8.309
X10.7703Y-8.369
X10.7703Y-9.059
X10.7703Y-9.119
X11.0453Y-9.709
X11.0453Y-9.769
X11.4203Y-6.709
X11.4203Y-6.769
X11.4203Y-7.459
X11.4203Y-7.519
X11.4203Y-8.209
X11.4203Y-8.269
X11.4203Y-8.959
X11.4203Y-9.019
X11.5203Y-6.809
X11.5203Y-6.869
X11.5203Y-7.559
X11.5203Y-7.619
X11.5203Y-8.309
X11.5203Y-8.369
X11.5203Y-9.059
X11.5203Y-9.119
X12.1703Y-6.709
X12.1703Y-6.769
X12.1703Y-7.459
X12.1703Y-7.519
X12.1703Y-8.209
X12.1703Y-8.269
X12.1703Y-8.959
X12.1703Y-9.019
X12.2703Y-6.809
X12.2703Y-6.869
X12.2703Y-7.559
X12.2703Y-7.619
X12.2703Y-8.309
X12.2703Y-8.369
X12.2703Y-9.059
X12.2703Y-9.119
X12.9203Y-6.709
X12.9203Y-6.769
X12.9203Y-7.459
X12.9203Y-7.519
X12.9203Y-8.209
X12.9203Y-8.269
X12.9203Y-8.959
X12.9203Y-9.019
X13.0203Y-6.809
X13.0203Y-6.869
X13.0203Y-7.559
X13.0203Y-7.619
X13.0203Y-8.309
X13.0203Y-8.369
X13.0203Y-9.059
X13.0203Y-9.119
X13.4891Y-9.809
X13.4891Y-9.869
X13.6703Y-6.709
X13.6703Y-6.769
X13.6703Y-7.459
X13.6703Y-7.519
X13.6703Y-8.209
X13.6703Y-8.269
X13.6703Y-8.959
X13.6703Y-9.019
X13.7703Y-6.809
X13.7703Y-6.869
X13.7703Y-7.559
X13.7703Y-7.619
X13.7703Y-8.309
X13.7703Y-8.369
X13.7703Y-9.059
X13.7703Y-9.119
X14.1391Y-9.709
X14.1391Y-9.769
X14.4203Y-6.709
X14.4203Y-6.769
X14.4203Y-7.459
X14.4203Y-7.519
X14.4203Y-8.209
X14.4203Y-8.269
X14.4203Y-8.959
X14.4203Y-9.019
X14.4266Y-9.809
X14.4266Y-9.869
X14.5203Y-6.809
X14.5203Y-6.869
X14.5203Y-7.559
X14.5203Y-7.619
X14.5203Y-8.309
X14.5203Y-8.369
X15.0766Y-9.709
X15.0766Y-9.769
X15.1703Y-6.709
X15.1703Y-6.769
X15.1703Y-7.459
X15.1703Y-7.519
X15.1703Y-8.209
X15.1703Y-8.269
X15.1766Y-9.059
X15.1766Y-9.119
X15.2703Y-6.809
X15.2703Y-6.869
X15.2703Y-7.559
X15.2703Y-7.619
X15.4578Y-9.809
X15.4578Y-9.869
X15.7391Y-8.309
X15.7391Y-8.369
X15.8266Y-8.959
X15.8266Y-9.019
X15.9203Y-6.709
X15.9203Y-6.769
X15.9203Y-7.459
X15.9203Y-7.519
X16.1078Y-9.709
X16.1078Y-9.769
X16.2078Y-7.559
X16.2078Y-7.619
X16.3891Y-8.209
X16.3891Y-8.269
X16.3953Y-6.809
X16.3953Y-6.869
X16.8578Y-7.459
X16.8578Y-7.519
X17.0453Y-6.709
X17.0453Y-6.769
X17.1453Y-9.809
X17.1453Y-9.869
X17.7953Y-9.709
X17.7953Y-9.769
X17.8953Y-9.059
X17.8953Y-9.119
X17.8953Y-9.809
X17.8953Y-9.869
X18.5453Y-8.959
X18.5453Y-9.019
X18.5453Y-9.709
X18.5453Y-9.769
X18.6453Y-9.809
X18.6453Y-9.869
X19.2953Y-9.709
X19.2953Y-9.769
T4
X4.0278Y-7.4498
X4.0278Y-7.5482
X4.0278Y-7.6467
X4.5986Y-7.4498
X4.5986Y-7.6467
T6
X4.2441Y-6.1988
X5.4646Y-6.1969
T7
X5.5328Y-9.839
X5.7828Y-9.739
X6.0016Y-9.089
X6.1891Y-8.339
X6.2516Y-8.989
X6.2828Y-7.589
X6.4391Y-8.239
X6.4703Y-6.839
X6.5328Y-7.489
X6.5641Y-9.839
X6.7203Y-6.739
X6.8141Y-9.739
X7.2203Y-6.839
X7.2203Y-7.589
X7.2203Y-8.339
X7.2203Y-9.089
X7.4703Y-6.739
X7.4703Y-7.489
X7.4703Y-8.239
X7.4703Y-8.989
X7.5016Y-9.839
X7.7516Y-9.739
X7.9703Y-6.839
X7.9703Y-7.589
X7.9703Y-8.339
X7.9703Y-9.089
X8.2203Y-6.739
X8.2203Y-7.489
X8.2203Y-8.239
X8.2203Y-8.989
X8.7203Y-6.839
X8.7203Y-7.589
X8.7203Y-8.339
X8.7203Y-9.089
X8.9703Y-6.739
X8.9703Y-7.489
X8.9703Y-8.239
X8.9703Y-8.989
X9.4703Y-6.839
X9.4703Y-7.589
X9.4703Y-8.339
X9.4703Y-9.089
X9.7203Y-6.739
X9.7203Y-7.489
X9.7203Y-8.239
X9.7203Y-8.989
X10.2203Y-6.839
X10.2203Y-7.589
X10.2203Y-8.339
X10.2203Y-9.089
X10.4703Y-6.739
X10.4703Y-7.489
X10.4703Y-8.239
X10.4703Y-8.989
X10.5953Y-9.839
X10.8453Y-9.739
X10.9703Y-6.839
X10.9703Y-7.589
X10.9703Y-8.339
X10.9703Y-9.089
X11.2203Y-6.739
X11.2203Y-7.489
X11.2203Y-8.239
X11.2203Y-8.989
X11.7203Y-6.839
X11.7203Y-7.589
X11.7203Y-8.339
X11.7203Y-9.089
X11.9703Y-6.739
X11.9703Y-7.489
X11.9703Y-8.239
X11.9703Y-8.989
X12.4703Y-6.839
X12.4703Y-7.589
X12.4703Y-8.339
X12.4703Y-9.089
X12.7203Y-6.739
X12.7203Y-7.489
X12.7203Y-8.239
X12.7203Y-8.989
X13.2203Y-6.839
X13.2203Y-7.589
X13.2203Y-8.339
X13.2203Y-9.089
X13.4703Y-6.739
X13.4703Y-7.489
X13.4703Y-8.239
X13.4703Y-8.989
X13.6891Y-9.839
X13.9391Y-9.739
X13.9703Y-6.839
X13.9703Y-7.589
X13.9703Y-8.339
X13.9703Y-9.089
X14.2203Y-6.739
X14.2203Y-7.489
X14.2203Y-8.239
X14.2203Y-8.989
X14.6266Y-9.839
X14.7203Y-6.839
X14.7203Y-7.589
X14.7203Y-8.339
X14.8766Y-9.739
X14.9703Y-6.739
X14.9703Y-7.489
X14.9703Y-8.239
X15.3766Y-9.089
X15.4703Y-6.839
X15.4703Y-7.589
X15.6266Y-8.989
X15.6578Y-9.839
X15.7203Y-6.739
X15.7203Y-7.489
X15.9078Y-9.739
X15.9391Y-8.339
X16.1891Y-8.239
X16.4078Y-7.589
X16.5953Y-6.839
X16.6578Y-7.489
X16.8453Y-6.739
X17.3453Y-9.839
X17.5953Y-9.739
X18.0953Y-9.089
X18.0953Y-9.839
X18.3453Y-8.989
X18.3453Y-9.739
X18.8453Y-9.839
X19.0953Y-9.739
T3
G00X4.9882Y-5.9738
M15
G01X4.9882Y-5.9974
M16
G05
G00X4.9882Y-6.1293
M15
G01X4.9882Y-6.1726
M16
G05
G00X5.3268Y-5.9738
M15
G01X5.3268Y-5.9974
M16
G05
G00X5.3268Y-6.1293
M15
G01X5.3268Y-6.1726
M16
G05
T5
G00X4.3014Y-7.3022
M15
G01X4.3447Y-7.3022
M16
G05
G00X4.3014Y-7.7943
M15
G01X4.3447Y-7.7943
M16
G05
T0
M30
